<?xml version="1.0" encoding="utf-8"?>
<!-- Generator: Adobe Illustrator 25.2.1, SVG Export Plug-In . SVG Version: 6.00 Build 0)  -->
<svg version="1.1" id="Layer_1" xmlns="http://www.w3.org/2000/svg" xmlns:xlink="http://www.w3.org/1999/xlink" x="0px" y="0px"
	 viewBox="0 0 1500 1500" style="enable-background:new 0 0 1500 1500;" xml:space="preserve">
<style type="text/css">
	.st0{fill:#55D3E9;}
	.st1{fill:#2F6B83;}
</style>
<path class="st0" d="M551.2,484.3c0.6-0.4,1.2-0.8,1.7-1.2c2.4,0,3.7-1.4,4.2-3.6c0.8-0.3,1.7-0.5,2.5-0.8c2.6,0.2,4.5-0.7,5.8-3.1
	c3.8-2.2,7.7-4.4,11.5-6.6c2.7,0.2,4.4-1,5.2-3.6c0.6-0.2,1.2-0.4,1.7-0.8c4.4,0.5,7.4-1.9,10-5c1.6-0.9,3.2-1.9,4.8-2.8
	c3.6,0,6.6-1,8.5-4.3c2.6-1.3,5.2-2.6,7.8-3.9c5.9,0,10.3-3.8,15.4-6c3.1-1.3,6.6-3.3,4.6-7.5c-3.5-7.3,1.8-9.1,6.6-11.3
	c7.8-3.6,15.7-6.9,23.3-10.7c4.1-2,6.2-5.4,4-10.1c-2.3-4.8-5.9-4.9-10.3-3.1c-6.5,2.7-13.1,5.2-19.7,7.7c-0.5-0.6-1.1-1.1-1.6-1.7
	c-1.2-7,0.9-10.7,7.9-14.6c20-11.2,42-16.8,63-25.2c43.4-17.6,91.2-22.8,132.3-46.8c2.1-1.2,5-1.1,7.6-1.6
	c27.5-4.9,54.7-10.6,83-11.2c32.6-0.7,64.8-7.7,97.7-6.2c10.3,0.5,21,2.1,31.1-1.5c10.2-3.7,20.4-3.1,30.8-1.8
	c25.8,3.3,51.8,4.2,77.6,7.9c7.7,1.1,20.5-0.8,22.4,3.6c4,9.3,9.7,5.9,16.8,5.4c-5.2,8.1-9.7,12.6-17.8,6.3
	c-3.2-2.5-6.4-2.1-10.4-0.4c-6.6,2.8-13.7,2.9-20.7,0.8c-7.5-2.3-15.2-3.4-23.1-2c-10.5,1.8-20.5,7.2-31.7,4c-1.3-0.4-3.4,0.2-3.3,2
	c0,1.2,1,2.8,2.1,3.5c2.5,1.6,5.1,3.4,7.9,4.1c16,3.9,31.4,9,45.4,17.8c2.7,1.7,6.4,1.9,9.5,3c7.7,2.8,15.8,4.9,23.2,13.7
	c-8.9-2.5-15.3-4.3-21.7-6.1c8.9,8.3,21,10.7,29.2,19.4c-13.3-2.4-23.8-13.1-39.3-13.3c4.8,6.8,12.6,7,18,13.1
	c-19-1.7-34.4-10.4-50.9-15.4c-22.2-6.8-43.9-15.5-68.2-7.7c5.1,5.2,11.6,5.7,17.7,6.5c12,1.5,23,6.1,34.4,9.5
	c2.3,0.7,4.6,1.7,3.7,4.5c-1,3-3.3,1.7-5.5,1c-12.7-4.5-25.7-7.3-38.9-10c-11.6-2.4-23.4-2.5-35.1-5.1c-11.1-2.4-23.6-5.9-36.5-2
	c2.7,4.8,6.6,4.4,10,5.4c14,3.9,28.7,4.5,42.8,8.4c23.7,6.6,46.6,15.5,70,22.8c6.9,3.7,13.9,7.5,20.8,11.2l0.2,0.9l0.9-0.1
	c13,9.1,26.1,17.9,34,32.4c-0.6,4.6-2.4,8.6-5.6,12c-9,0.8-17.3-0.6-23.4-7.9c-18.6-22.5-44.4-33.4-70.5-43.9
	c-16-6.6-31.6-15.5-50.6-13.3c1.5,5.3,5,4.9,7.6,6c13.7,5.4,28.2,9,41.1,16.3c12.1,6.9,23.8,14.6,35.7,21.9
	c16.1,16.5,32,32.6,42.2,54.1c12.1,25.4,13.7,50.4,5.5,76.8c-10.3,33.2-27.9,62.9-45,92.9c1.1,0.3,2,0.9,2.4,0.6
	c1.5-1,3.1-2.1,4.1-3.5c15.8-21.3,32.5-42.3,42.1-67.1c12.8-33.1,24.6-67,6.2-102.4c-3.2-6.2-0.3-10.7,5.6-13.6
	c9.1-4.4,19.1-1.7,24.4,7c3.3,5.4,5.6,11.3,7.7,17.3c6,17.9,2.9,36.2,3,54.4c-0.5,1-1,1.9-1.4,2.9c-2.9,9.5-6.1,18.9-8.8,28.3
	c-8.3,29.1-23.4,54.4-40.4,78.9c-28.5,41.3-59.3,81.2-83.9,125.1l-0.8,0.2l0.2,0.8c-1.9,4-3.7,7.9-5.6,11.9
	c-3.7,2.3-5.2,5.6-4.7,9.8c-0.4,1.4-0.8,2.9-1.2,4.3c-1.7-0.2-2.9,0.6-3.5,2.1c-11.1,31-23.4,62.1-3.4,94.2c1,1.6,1.8,3.3,2.2,5.1
	c1.8,8.7-3.9,14.4-10,17.9c-5.5,3.2-13,5-18-2.2c-8.5-12.4-15-25.3-17-40.7c-2.6-20.2,1.6-39.3,6.2-58.4
	c3.2-13.3,7.6-26.3,11.4-39.5c0.7-1.4,1.4-2.9,2-4.3c2.5-0.7,3.3-2.4,2.5-4.8l0.2-0.5c2-0.7,2.6-2.1,2-4.1c0.7-1.3,1.4-2.7,2.1-4
	c15.9-24.5,31.8-49,47.7-73.5c-1-0.7-2-1.5-3-2.2c-4.9,5.8-10.1,11.4-14.6,17.6c-11.6,15.8-26.5,29-35.6,46.7l-0.6,0.8
	c-2.5,0.6-3.6,2.3-3.5,4.7c-1,1.4-2,2.8-3.1,4.1c-2.4,0.7-3.8,2.2-3.6,4.8c-0.4,0.6-0.9,1.2-1.3,1.8c-4.6,3.7-8.6,7.8-10.1,13.7
	c-2.1,2.9-4.2,5.8-6.3,8.6c-2.3,0.4-3.2,1.9-3,4.2c-1.7,2.4-3.4,4.8-5,7.1c-6.4,2.5-9,7.8-10,14.2c-0.4,0.5-0.8,1-1.2,1.6
	c-2.6,0.6-3.9,2.1-3.5,4.9c-0.5,0.6-0.9,1.2-1.2,1.8c-4.1,1.5-6.1,4.4-6,8.7l-0.3,0.5c-12.6,14.5-13,43.4-4.6,56.5
	c3.7,5.8,6.2,13,14.7,13.7l0,0c2.9,8.4,11.9,9.3,17.6,14.4c7.4,6.6,11.3,14.1,7.1,23.6c-3.3,7.4-13.4,9.2-23.9,4.9
	c-7.7-3.1-14-8.4-20.5-13.4c-16-12.3-24.1-29.7-31.7-47.5c-0.4-2.8-0.8-5.5-1.2-8.3c0.1-16.7,2-33.2,6-49.4c0.7-1.3,1.3-2.7,2-4
	c3.7-2.3,5.2-5.5,4.6-9.8c0.6-1.2,1.2-2.5,1.8-3.7c2.5-1,3.3-2.7,2.7-5.3c17.8-28.3,39.6-53.4,62.8-77.1
	c45.9-47,82-100.4,109.6-159.8c16.4-35.2,17.7-69.6-6.1-102.4c-0.1-2-1-3.3-3.1-3.5c-16.2-21.4-35.1-39.3-60.6-49.3
	c-7.7-8.4-17.9-9.4-28.3-9.6c7.4,5.7,15.2,10.3,24.6,11.1c22.1,14.6,40.9,32.6,56.8,53.7c-0.6,1.2-0.2,2.2,0.9,2.8
	c1.1,2.4,2.1,4.8,3.3,7.1c14.1,26.6,16.2,53.4,3.9,81.5c-13.5,30.7-33.1,57.3-52.6,84.1c-15,20.5-30,41.2-46.7,60.3
	c-21.2,24.4-46.8,44.3-71.6,65c-4.1,7.4-12.1,10.3-17.9,15.8c-4.1,4.2-8.3,8.4-12.4,12.6c-3.5,4.4-7.1,8.9-10.6,13.3l-0.5,0.5
	c-7.1,3.9-11.5,9.8-13,17.8c-1.8,3.6-3.6,7.3-5.4,10.9c-9.2,12.7-13.8,26.4-9.1,42.1c0.1,1.2,0.2,2.5,0.3,3.7
	c-3.4,5.7-0.3,10.9,1.4,16c7.1,21.3,23.2,35.1,41,47.2c8,5.4,16.8,9.8,23.2,17.4c5.1,6.1,7.8,13.1,3.1,20.6
	c-4.8,7.6-12.3,7.6-19.9,5.5c-5.3-1.5-10.4-4.1-15.7-5.6c-6.7-1.9-10.3,0.2-7.9,7.8c1.9,6.4,2.6,12.3-3.9,16.9
	c-6.3,4.5-13.4,6.4-19.8,2.8c-26.8-15.1-52.6-32-68.7-59.1c-25.3-42.5-28.9-87.7-13.4-134.6c6.7-20.2,16.7-38.9,26.2-57.8
	c20.2-32.8,46.7-60.5,71.9-89.3c24.5-27.9,51.1-54,73.9-83.5c3.4-2.2,5.2-5.4,5.5-9.5l0.5-0.8c1.7-0.4,2.8-1.3,2.9-3.1
	c15.7-25,27.9-50.8,18-81.5c0.4-2.6-0.5-4.7-2.7-6.2c-2.3-5.1,0.1-9.1,3.2-12.9c1.9-0.2,3.2-1.1,3.7-3c2.9-0.5,5.8-0.9,8.7-1.4
	c1.7,0.1,3.3,0.1,5,0.2c15.7,7,15,22.7,16.2,35.4c4.4,45.8-18.3,82.8-45.8,115.5c-35.8,42.7-75.2,82.4-109.6,126.3
	c-4,0.5-6.7,2.3-6,6.9l-0.3,0.5c-6,2.3-8.5,6.9-8.8,13.1c-1.6,2.6-3.2,5.2-4.7,7.7c-3.3,1.9-5.4,4.6-5.5,8.6l-0.5,0.6
	c-5.3,2.1-5.4,7.7-7.8,11.7c-31.7,53.3-28.6,122.7,24,166.2c7.7,6.4,14.9,14.7,27.6,14.3c-6.5-10.2-14.2-18.2-21.8-26.2
	c-21.3-22.4-29.2-48.6-23.8-79.2c4.5-25.8,15.2-49.4,24.7-73.5c2.2-3.3,4.4-6.6,6.6-9.9c1.4-0.3,1.8-1,1.3-2.4
	c3.2-7.2,6.4-14.4,7.3-22.3c1-3.3,2-6.7,3-10c1.5-4.3,3-8.6,4.6-12.9c0.2-0.7,0.4-1.4,0.6-2.1c6.8-16.9,18.4-30.6,30.8-43.5
	c23.7-24.8,47.2-49.7,68.5-76.5c20.1-25.4,39.3-51.4,49.2-82.9c11-34.7-9.8-77.7-43.5-89.5c-12.4-12.5-29.6-13-45.1-16.8
	c-37.6-9.3-75.6-6.6-113.3-0.7c-37.2,5.9-71.5,20.9-105.2,36.8c-28,13.1-55.6,27.1-81.3,44.4c-75.1,37.9-133.5,99.9-205.4,142.8
	c56.9-28.1,116.3-51.4,171.9-86.3c-7.5-0.6-13.9,1.4-16.5-5.7c-1.8-4.8,0.2-8.9,3.4-12.2c2.6-2.6,5.6-4.9,8.7-7.1
	c14.1-9.8,28.2-19.5,42.4-29.3c14.9-8.3,29.8-16.6,44.6-25c41.7-23.6,85.5-42.3,132.6-52.1c48.2-10.1,95.6-6.6,142,9.9
	c6.6,2.4,11,6.1,10.7,13.7c-0.3,0.5-0.6,1-1,1.5c-7.8,4.8-16.1,6.2-25,3.8c-1.8-0.8-3.6-1.5-5.4-2.3c-10-6.2-20.8-9.4-32.7-8.9
	c-1.3-0.3-2.6-0.5-3.9-0.8c-14.7-4.9-29.7-5.2-44.8-2.3c-2.8,0.2-5.6,0.4-8.3,0.5c-27.8-0.4-53.3,9.4-78.7,18.7
	c-10.9,4-22.8,6.7-31.8,14.9c-38.7,16.7-74,39.4-108.2,63.9c36.2-19.9,71.2-42,108.3-60.3c35.4-15.8,71.6-28.8,110.5-32.6
	c19.9-1.3,39.3,2.6,58.5,6.5c42.3,8.6,62.6,42.5,50.6,83.7c-7.2,25-23.1,44.8-39.5,63.9c-17.8,20.9-38.9,38.7-56.9,59.6
	c-24.3,28.2-49.5,55.6-71.9,85.4c-3.7,4.9-8.3,9.4-10.8,14.9c-3.4,7.5-11.5,13.3-9.6,23c-0.8,1.5-1.6,3-2.4,4.5
	c-8.2,6.8-9.3,17.1-12.9,26.1c-1.8,4.4-3.3,6.7-7.3,2.2c1.7-4.8,3.4-9.6,5.1-14.3c1.5-0.5,1.8-1.5,1.1-2.9c8-24.4,21.2-46.3,37.1-66
	c34.1-42.5,70.7-82.7,109.1-121.4c19.4-19.5,38.4-39.7,49.9-65.5c17.6-40,4.7-70.9-36.3-85.2c-6.3-2.2-13-3.5-19.4-5.3
	c-36.9-7.2-73-4.8-108,9.9c-43.5,15.5-83.7,37.9-122.5,62.3c-66.6,41.9-136,78.3-207.6,111c-37.8,17.3-72.5,40-103.4,68
	c-4.1,3.7-8.9,7.3-10.9,13.7c2.1-0.1,2.9,0.1,3.4-0.3c1.6-1,3.2-2,4.5-3.3c32-32.4,70.9-54.2,111.2-74.2c4.2-2.1,8.5-5.2,13.6-2.4
	c0,3.7-3.6,3.2-5.6,4.2c-32.9,15.8-64.7,33.6-93.4,56.3c-7.9,6.3-16.2,12.4-21.1,22.4c31.5-11.3,63.1-22.7,97.9-35.2
	c-10.3-0.8-18.7-0.2-19.6-9.5c-0.8-9.1,5.8-13.9,13.1-17.5c2-1,4.1-1.8,6.2-2.7c13.9-6.2,28-12.1,41.8-18.5
	c60.3-28.1,118.2-60.3,173.2-97.8c1.9-1.3,4.4-2,5.2-5.9c-2.6,1.2-4,1.7-5.2,2.4c-59.2,37.6-120.4,71.4-184.6,99.8
	c-2.4,1.1-4.2,4.9-7.7,2c-2.9-2.7,0.4-3.5,1.6-4.6c7.2-6.2,16.6-8,24.9-11.9c50.2-23,98.2-49.8,145.1-78.8
	c45-27.9,90.3-55.4,139.8-75c4.2-1.2,8.5-2.2,12.7-3.5c29.1-8.8,58.4-13.4,88.5-5.8c4.3-1.7,7.9,1.3,11.6,2.1
	c26.1,5.8,46.9,30.3,44.8,52.8c-1.8,18.4-8.4,35.1-19.8,49.9C900.5,632.1,855.4,671.6,818,718c-15.4,19.1-31.2,37.8-43.9,58.8
	c-13.3,22.1-20.9,46.7-29,71c-2.7-0.6-5.5-1.1-8.2-1.7c6.1-23.5,16.1-45.6,26.7-67.3c2.5-1.6,3.4-4.2,4.1-7c1.3-2.6,4-4.8,3-8.3
	l-0.5-0.2c3.1,1.8,3.9-1.2,5.5-2.6c5.8-4.3,8.4-10.5,10.7-17c2.2-2.5,4.4-4.9,6.6-7.4c1.6-0.1,2.4-0.8,2-2.5
	c31.1-38.1,65.5-73.2,99.3-108.8c17.9-18.9,36.6-37.2,48.6-60.9c18.3-36.2,5.6-66.4-33.5-77.1c-23.9-6.5-48.2-8.4-72.7-2.5
	c-4.7,1.8-9.5,2.7-14.7,3.2c-12,1.2-23.1,6.2-33.8,11.6c0.3,1.2,0.6,2.3,0.9,3.5c16.2-4,32.3-7.9,48.5-11.9
	c10.9-0.2,21.9-0.5,32.8-0.7c1,0.1,2,0.2,3,0.3c2.1,0.3,4.2,0.6,6.3,1c3.3,2.5,7.2,2.9,11.2,2.4c0.7,0.2,1.3,0.4,2,0.6
	c1,1.7,2.6,2.2,4.5,1.9c28.1,14.7,38.3,40.6,26.9,70.2c-9,23.6-27.1,40.7-43.7,58.7c-31.9,34.5-67.7,65-102.5,96.4
	c-3.5-0.9-5.4,0.8-6.6,3.8c-13.6,10.1-27.3,20.3-40.9,30.4c-2.3-1.3-3.3-0.2-3.6,2c-5.2,3-10.4,6-15.6,9c-1.3-0.4-2.1,0.1-2.5,1.4
	c-2,1.2-4,2.5-6,3.7c-2.5-0.4-4.2,0.5-5,2.9c-0.4,0.2-0.7,0.3-1,0.6c-1.1-0.6-1.5-0.2-1.5,0.9c-1.3,0.7-2.5,1.4-3.8,2.2
	c-4.2,0.1-7.6,1.5-9.4,5.6c0,0-0.6,0.4-0.6,0.4c-4.6-0.7-7.6,2.6-11.1,4.4c-13.5,7.2-22.6,7.2-26.9-0.3c-4.3-7.6,0.4-15.9,13.4-23.3
	c12-6.9,23.8-14,34.6-22.8c3-1.6,6-2.9,8.9-4.7c59.8-37.4,111.8-84.1,160.1-135c12.3-13,24.5-26.1,33.2-42c6-11,6.9-22.5-0.7-32.7
	c-6.9-9.4-16.5-14.8-29-11.7c-0.9-5.4-5.2-4.4-8.8-4.6c-9.8-0.6-19.6,0.5-28.8,3.1c-14.2,4-29.4,5.9-41.6,15.4
	c15.5-6.4,31.2-12.1,48.2-13.1c10.4-0.6,20.8-0.6,31.1-0.8c11.1,4.8,17.2,16.8,30.8,21c-3.2,2.6-7.4,4.2-8,6.7
	c-5,20.5-20,33.7-33.9,47.6c-51,51.3-102.1,102.6-162,143.8c-0.7,0.5-1.5,0.9-2.2,1.4c-0.3,0.3-0.6,0.6-0.8,1
	c-0.7,0.1-1.6,0.1-2.1,0.4c-45.5,29-94.4,51.9-143.2,74.6c-32.9,15.3-66.5,29.7-101.8,39.8c-44.2,12.6-88.9,18.9-134.8,14.4
	c-25.1-2.5-35.3-18.2-29.9-43c1.7-7.9,8.2-13.3,8.9-21.4c15.5-21.4,36.5-36,59.4-48.4c4.6-2.5,10.8-3.7,5.1-11.7
	c-3.1-4.4,1.5-9,4.8-12.6c13.4-14.8,29.5-26.3,45.7-37.8c3-2.1,5.9-4.3,10.6-7.6c-8.4,0.2-12.9,4.4-18,7
	c-15,7.5-29.9,15.4-44.8,23.1c-5,2.6-10.5,3.9-14-1.7c-3.1-4.9,0.1-9.3,3.6-12.9c3.1-3.3,7.1-5.3,11.1-7.4
	c19.8-10.4,39.5-21.1,59.2-31.6c1-0.8,2-1.7,3-2.5c-1.8-1.4-3.2-0.9-4.3,0.9c-14.8,6.7-29.6,13.7-44.6,20.1
	c-9.4,4-12.5,1.7-13.4-8.4c1.6-2.9,3.1-5.7,4.7-8.6c0,0,0.4-0.4,0.4-0.4c2.7-1.5,5.5-3.1,8.2-4.6c0,0,0.3-0.1,0.3-0.1
	c3.5,0.8,6.5-0.4,8.9-2.9c21.3-8.1,41.2-19.1,60.4-31.1C495,583.7,547.8,528.8,614.2,493c3.3-0.9,6.3-2.2,8.6-4.9
	c1.2-0.4,2.4-0.8,3.5-1.2c26-12.8,52-25.7,78-38.5c-0.6-1.2-1.3-2.5-1.9-3.7c-26.9,11.3-53.8,22.5-78.3,38.9
	c-1.1,0.7-2.2,1.4-3.3,2.2c-3.3,0.9-6.4,2.3-8.8,4.8c-24.5,12-47.4,26.6-69.3,42.7c-28.8,21.2-56.7,43.6-85.8,64.3
	c-16.5,11.7-34.7,20.8-52.2,31.1c-4.8-6.9-12.1-3.5-18.3-4.3c-0.6-0.1-1.2-0.4-1.7-0.8c-0.3-0.7-0.6-1.5-0.8-2.2
	c-0.1-1.2-0.2-2.5-0.2-3.7c0.4-0.6,0.9-1.3,1.3-1.9c5.7-5.7,12.3-8.1,20.8-8.8c16.9-1.3,30.8-10.9,43.5-21.2
	c32-26,65.6-49.8,99.2-73.6c0.7-0.2,1.6-0.1,2.1-0.5c41-27.3,84.3-50.4,129.5-70c3.2-1.4,7.3-2.5,8.7-7.8c-2.6,0.7-4.3,1.2-6,1.7
	c-24.8,8.4-47.3,21.6-71,32.6c-25.4,11.8-47.5,29.3-72.6,41.5c-9.9-3.3-11.2-7.1-4.4-14c2.5-2.5,5.8-4.2,8.7-6.3
	c1.9,0.1,3.3-0.7,4-2.6c0,0,0.2-0.1,0.2-0.1C549.4,486.7,550.6,486,551.2,484.3z M1081.1,465c-0.7-0.7-1.3-1.4-2-2.1
	c-4.9-4.4-8.3-10.6-15.5-12.1c-4.2-13.1-18.1-13.7-26.9-20.9c-0.6-0.5-3.4,0.1-3.8,1c-1.3,2.6,0.8,3.9,2.7,5.2
	c9.3,6.6,18.6,13.2,27.9,19.9c7.3,6.4,12.7,14.4,18.3,22.1c-0.1,1.4,0.5,2.2,1.9,2.5c7.9,13.4,12.3,28.1,14.7,43.1
	c3.4,21.7-6.7,40.6-15.8,59.5c-2.4,5-7.9,9-6.4,15.2c2,8-6.9,5.3-8.7,10.1c-2.1,5.4-6.2,10.1-9.5,15.1
	c-27.9,42.2-62.7,78.6-97.3,115.2c-9.2,9.7-22.7,10-30,2.4c-6.4-6.6-4.7-14.2,5.6-25.2c2-2.2,4.1-4.4,6.1-6.5
	c22.8-23.6,45.2-47.6,65.3-73.6c17.5-22.7,34.9-45.2,44.5-73.6c5.2-15.5,10.3-29.5,6.9-45.7c-0.2-1-0.4-1.9-0.6-2.9
	c-0.3-2.4-0.6-4.8-0.9-7.2c-0.8-0.6-1.6-1.1-2.4-1.7c-2.3-15.1-9.9-27.3-21.2-37.3c0.1-1.4-0.6-2.1-1.9-2.3
	c-0.8-0.8-1.6-1.5-2.4-2.3c-0.7-1.8-1.8-3.1-4-2.6c-1-0.4-2-0.9-3-1.3c-1-4.4-5.1-4.3-8.2-5.6c-3.1-2.6-5.7-6.2-11.5-5.9
	c2.2,5.5,4.6,9,10.3,8.6c1.5,2.9,4.3,4.1,7,5.2c11.3,14.2,23.6,27.8,27.5,46.5c0.3,0.7,0.5,1.4,0.8,2c0.2,2,0.4,3.9,0.6,5.9
	c-0.7,2.1-0.2,3.8,1.5,5.2c0.2,24.3-8.3,46.5-20.3,66.5c-23.5,39-53.2,73.5-84.2,106.8c-12.7,13.6-26.2,26.5-36.8,42
	c-1.4,0.3-1.9,1.1-1.6,2.5c-0.2,0.6-0.5,1.3-0.7,1.9c-0.6,0.8-1.2,1.7-1.8,2.5c-0.8,1.5-1.7,3-2.5,4.4c-1.2,0.4-1.7,1.2-1.3,2.4
	c-1.6,4.8-3.2,9.7-4.9,14.5c-0.3,1-0.6,2-0.9,2.9c-1.6,5.9-3.1,11.8-4.7,17.7c-4.2,4.7-5.9,10.2-5.8,16.4c-2.3,4-4.6,8.1-6.9,12.1
	c-19.7,19-24.4,45.6-27.9,69.8c-6.4,44,24.2,87.4,65.5,102.2c2.8,1,6,2.4,7.8-1.2c1.5-2.9-0.7-5-2.8-6.6c-7.5-5.6-15-11-22.6-16.4
	c-39.3-28.3-49.9-76.2-26.5-119.9c8.9-16.6,21.7-30.2,31.7-45.9c5.4-5.1,10.5-10.5,16.3-15.1c47.4-38.6,92.9-78.9,128-129.7
	c15-21.7,31.3-42.4,44.5-65.2c12.6-21.9,22.4-44.2,15.9-70.8c-3.9-16-12.4-29.3-20.9-42.9c0.5-1.4,0-2.1-1.4-2.4l-0.1-0.2
	c0-1.4-0.7-2.1-2.1-2.1l-0.1-0.1c-0.8-0.7-1.5-1.3-2.3-2C1081.3,465.2,1081.1,465,1081.1,465z M821.6,662c-1.5-0.1-2.2,0.7-2.4,2.1
	c-2.1,1.6-4.3,3.2-6.4,4.8c-16.2,13.7-32.4,27.4-48.7,41.2c-1.2,1-2.4,1.9-3.7,2.9c-2.4,1.9-4.9,3.8-7.3,5.7
	c-13.8,9.5-27.7,19.1-41.5,28.6c0.6,0.9,1.3,1.8,1.9,2.8c14.2-9,28.3-18.2,41.4-29c2.6-2,5.3-4.1,7.9-6.1c1.2-0.9,2.3-1.8,3.5-2.8
	c17.6-12.1,33.6-26,48.5-41.2c1.8-1.9,3.6-3.7,5.3-5.6c0.7-0.8,1.4-1.7,2-2.6c1.1-0.9,3.9-1.4,0.9-3.4c6.7,1.1,8.5-4.9,12.3-8.2
	c27-24.4,53.1-49.7,73.4-80.3c11.9-17.8,10.9-37.4-2-52.4c-0.7-0.7-1.4-1.4-2.1-2.1c-0.2-0.6-0.6-1-1.2-1c-1.4-2.5-3.3-4.5-6.3-4.9
	c-0.3-0.6-0.7-0.9-1.3-1.1c-2.9-3.7-6.5-4.5-12.2-3.9c3.7,4.1,6.5,5.9,9.9,6.3l0.8,0.5l0.9,0c1,2.7,3.2,4,5.5,5.3
	c14.2,20.5,11.8,40.2-2.3,59.7c-19,26.3-42.1,49.1-64.7,72.2c-3.4,3.4-6.9,6.7-10.3,10.1C822.8,660.4,822.2,661.2,821.6,662z
	 M1067.8,474c0-1.4-0.6-2.2-2-2.4c-8.6-9.6-17.6-18.7-28.7-25.5c-0.4-1.3-1.2-1.8-2.5-1.5c-0.6-0.4-1.2-0.8-1.8-1.2
	c-0.3-1.3-1.1-1.8-2.4-1.3c-1.5-0.9-2.9-1.8-4.4-2.7c-13.4-10-29.8-12.4-45.3-16.5c-11.3-3-23.3-6.8-36-3.8c1.5,3.9,4.6,3.1,6.9,3.7
	c18.3,4.8,37.2,7,54.2,16.5c4.7,2.6,9.2,8.3,16,6.2c3.2,2.4,6.5,4.8,9.7,7.3c0.1,1.3,0.7,1.8,2,1.6c2.8,2.7,5.6,5.3,8.4,8
	c0,1.3,0.6,2,1.9,2c1.4,1.7,2.9,3.3,4.3,5c-0.1,1.4,0.6,2.2,2,2.4c6.1,8.8,12.1,17.8,14.7,28.4c0.9,4.2,2.3,8.3,1.2,12.9
	c-1,4.5-0.1,9.3,4,12.6c-0.3,25.8-9.8,48.7-22.7,70.4c-18.9,32-42.3,60.4-67,88c-12.7,14.2-25.6,28.2-38.3,42.3
	c-1.7,1.9-4.4,3.8-2.2,6.6c1.8,2.3,4.8,1.9,7.3,1.1c5.3-1.6,8.6-5.9,12.1-9.7c31.2-33.6,63.8-66.2,89-104.7
	c20.6-31.4,46.3-61.3,40.2-103.3c2.5-3.5-1.3-3.2-2.7-4.4c0,0,0,0,0,0c2.5-7.6-1.8-12.8-6.1-18.1c-1.5-6.9-6.5-11.8-10.2-17.4
	c0.2-1.3-0.4-2.1-1.7-2.4L1067.8,474z M386.7,684.5c-1.9-0.1-3.8-0.2-4.5,2.3c-13.1,3.6-24.7,10.2-35.8,17.9c-0.3,0-0.6,0-0.8,0.1
	c0.2,0,0.5-0.1,0.7-0.1c12.9-4,24.7-10.2,35.7-18c1.5-0.7,3-1.5,4.5-2.2c1.3-0.2,2.5-0.5,2.2-2.3c0.6,0,1.2,0,1.8-0.1
	c-0.1-0.3-0.2-0.7-0.3-1c-0.4,0.4-0.9,0.8-1.3,1.2C387.7,682.5,386.5,682.8,386.7,684.5z M545.7,576.8c2,0.2,3.4-0.5,4.5-2.2
	c0.7-0.8,1.5-1.5,2.2-2.3c2.3-1.4,4.7-2.8,7-4.3c2.6-2.1,5.1-4.2,7.7-6.4c-2.7,2-7.4,1.9-7.5,6.5c-3.4-0.4-5.8,1-7,4.3
	c-1.4,0.1-2.4,0.6-2.2,2.3c-2-0.2-3.7,0.1-4.5,2.2c-0.5,0.4-2.4,0-0.8,1.5C545.3,577.8,545.5,577.3,545.7,576.8z M714.9,540.2
	c0.9-0.9,1.9-1.8,2.8-2.6c-1.6-1.6-3-0.8-4.4,0.4c-1.4,0.8-2.9,1.7-4.3,2.5c-6.4,3.4-13.6,5.8-20.3,14.3
	c10.3-3.6,16.3-8.4,22.7-12.4C712.5,541.6,713.7,540.9,714.9,540.2z M996,789.5L996,789.5c3.1-0.3,2.3-2.5,2.3-4.4l0.1-0.1
	c3.2,0.2,4.4-1.6,4.3-4.6l0.1-0.1c1.6,0,2.2-0.8,1.7-2.3c15.6-22.3,32.3-44,50.4-64.2c35.7-39.9,63.8-84.3,85.6-133.1
	c19.1-42.9,15.8-82.5-16.4-118.2c-9.6-18.7-44.1-44.8-58.1-41.9c22.8,11.7,38,29.8,53.9,47.2c0.7,1.2,1.4,2.4,2.1,3.5
	c0.6,0.9,1.1,1.7,1.7,2.6c0.3,0.5,0.6,1.1,0.9,1.6c-0.2,1.4,0.4,2.2,1.7,2.6c20.5,34.1,17.2,68.7,1.8,103.5
	c-28.8,64.7-68.7,121.9-118,172.5c-5.4,0.8-8.3,3.8-8.2,9.4c-3.5,4.1-7,8.2-10.5,12.3c-1.4,0.2-2.1,1-2,2.4
	c-5.3,6.7-10.7,13.3-16,20c-2.7,0.7-3.9,2.5-3.6,5.2c-1.8,2.7-3.7,5.4-5.5,8.1c-2.7,0.5-3.7,2.4-3.8,5c-3.1,2.2-1.6,5.8-2.8,8.6
	c-8,1.4-6,9.2-8.3,13.9c-17.4,36.5-6.1,76.1,27.5,97.9c4,2.6,9.5,9,13.3,3.3c4-6-4.5-8.1-8.3-10.7c-22.1-15.1-31.6-35.3-28.8-62.2
	c1.2-11.3,6.4-21.2,7.9-32.2l0.2-0.2c3.1,0,4.3-1.7,4.2-4.6c4.4-6.1,8.7-12.2,13.1-18.2c1.5-0.2,2.1-1.1,1.8-2.6
	c1-1.3,2-2.5,3.1-3.8c3.5-0.1,4.1-2.3,3.7-5.2c0.8-0.7,1.5-1.5,2.3-2.2c4-0.6,4.7-3.3,4.3-6.8c0,0,0.1-0.1,0.1-0.1
	C994.5,790.8,995.3,790.1,996,789.5z M433.2,603.1c-1.4,0.8-2.9,1.6-4.3,2.4c-1.6,0.4-4.6,0.7-3.5,2.8c1.4,2.5,3.6-0.4,5.4-0.9
	c1.4-0.8,2.8-1.5,4.2-2.3c1.4-0.8,2.8-1.6,4.2-2.4c1.7-1.1,4.3-1.4,4.2-4.4c-2.5-0.5-4.1,1-5.8,2.4
	C436.1,601.5,434.6,602.3,433.2,603.1z M541.3,525.2c-1.4,0.8-2.8,1.7-4.2,2.5c0.3,0.4,0.8,1.2,1,1.1c1.7-0.5,3-1.5,3.4-3.4
	c3.1-0.3,5.5-1.5,6.6-4.7c4.4-0.4,7.4-2.6,8.8-6.8c0.5-0.2,1.1-0.4,1.6-0.6c-0.5,0.2-1,0.4-1.5,0.7c-3.4,1.7-7,3-8.8,6.8
	C545,521,542.7,522.4,541.3,525.2z M1095.8,685.1c2.8-2.6,5.3-5.5,6.5-9.2c2.2-2.2,6-3.9,3.2-8.4c-2.8,2-3.6,4.7-4.2,7.5
	c-2.6,2.7-5.2,5.4-7.8,8.1c-1.5,1.8-5.3,3.9-2.6,6C1093.7,691.2,1094.5,687,1095.8,685.1z M530.2,534.4c-5.2-0.4-8.3,3.1-11.6,6.2
	c-4.5,2-8.2,5-11.5,8.6c-3,2.2-6.1,4.4-9.1,6.6c-2.4,1.8-4.7,3.5-7.1,5.3c-4,2.9-9,4.8-11.8,11.3c6.8-0.9,10.1-4.7,13.7-8.2
	c2.6-2.1,5.2-4.2,7.8-6.2c2.7-2.3,5.5-4.6,8.2-6.9c3.9-2.9,7.9-5.9,11.8-8.8C524.2,540.2,527.8,538,530.2,534.4l0.2-0.5L530.2,534.4
	z M413.2,767.2l0.5-0.2c5.3-0.1,10.1-1.3,14-5.2c56.3-20,110.7-44.4,163.6-72.1c51-26.7,100.2-56.3,147.2-89.3
	c20.8-14.6,44.6-25.7,60.8-48.9c-9.6,3.1-16.4,8.1-23.4,12.8c-36,24-70.2,50.5-108.1,71.7C591.7,678.7,515.9,721.8,432,748
	c-28.5,8.9-56.5,19.2-82.9,33.6c-13.6,5-24.3,13.6-32,25.9l-0.1,0.1c-6.9,3.3-9.4,10.4-12.4,16.4c-4.3,8.9,0,18,8.6,19.1
	c6.4,0.8,13.2,2.3,19.6-0.8c3.7,0,7.5-0.1,11.2-0.1c3,2.3,6.4,1.4,9.7,1.5c44.6,0.3,86.5-12.9,127.7-27.4c29.3-10.3,58.1-22.8,85-39
	c45.6-22.8,90.8-46.4,131.8-77.2c1.2-1,2.4-2,3.6-3c9.3-4.5,16.6-11.6,23.8-18.8c19.1-17.6,39.2-33.9,57.8-52.2
	c13.9-13.7,29.7-26.1,42.8-40.8c8.6-9.6,19-18,25.1-29.8c2.7-5.4,3.5-10.8-3-13c-7-2.4-14.7-6.7-22-0.5c-1.8,1.5-1.4,4.6-0.2,6.3
	c9.2,12.5,0.4,20.1-7.9,27c-10.9,9-22.5,17.2-34.1,25.3c-27.2,18.9-54.5,37.6-81.8,56.4c-3.6,2-7.2,3.8-10.7,5.9
	c-34.3,19.8-67.7,41.3-103,59.1c-40.5,20.5-82.6,37.7-124,56.3c-16.7,2.4-32,9.4-47.9,14.5c-22.7,7.3-45.2,15.1-68.2,21.2
	c-6.5,1.7-15.8,6.2-21.4-2.8c-3.1-5,5.3-15.5,14.9-19.5c1-0.4,2.1-0.7,3.1-1.2c5-2.2,11.1-1.7,15.3-6c2-0.6,4-1.1,6-1.7
	c2,0.8,3.6,0.4,4.8-1.4c10.3-3.4,20.5-6.9,30.8-10.3C406.4,771.9,410.2,770.6,413.2,767.2z M743.1,523.1c6.7-1.6,12.3-5.2,17.9-9
	c6.9-0.9,12.4-5,18-8.7c-6.7,1.4-13.7,2.1-18,8.7c-7.4,0-12.9,4.2-18.4,8.3c-0.9,0.5-1.8,1-2.7,1.5c0.2,0.3,0.6,0.8,0.7,0.8
	C741.5,524.2,742.3,523.6,743.1,523.1z M377.6,662c-5.3,1-10.3,2.8-14.3,6.6c5.3-1,10.4-2.5,14.2-6.7c2.4-0.2,5,0.2,7-3.6
	C381.6,659.8,379.6,660.9,377.6,662z M422.6,664.3c-6.8,1.1-12,5.1-16.9,9.6c5.6-3.2,12.3-4.6,16.7-9.7c2.1-0.3,4-0.9,4.5-3.5
	C425.5,662,422.9,661.5,422.6,664.3z M474,576.8c-10.2,0.7-14.1,10.3-21.4,15.1c8.6-2.9,16.7-6.6,21.5-15l0.3-0.4L474,576.8z
	 M789.9,545.2c8.3-3.6,16.7-7.1,25-10.7c-10.2,0-19.1,3-27,8.7c-5.6,3.3-11.3,6.6-16.9,10c-42.9,27.3-83.6,58.1-127.8,83.3
	c46.8-21.5,87.8-52.1,129.4-81.8C778.3,551.5,784.1,548.4,789.9,545.2z M619.9,478.4c-17.8,5.3-33.5,14.3-47.1,26.8
	c-3.4-0.4-5.9,0.8-8.6,5.1c4.6-1.3,7.1-2.4,8.6-5.2c16.5-7.5,32.1-16.5,47-26.9c0.1-0.3,0.2-0.5,0.4-0.8
	C620,477.7,620,478,619.9,478.4z M290.4,816.9c-1.7,1-2.3,2.4-2.1,4.3c-0.3,1.3-0.6,2.7-1,4c-9.2,16-3.3,31.1,13.9,35.3
	c9.9,2.4,20,2.1,30,1.2c14.1-1.2,28.1-3,42.1-3.8c21.4-1.2,42.1-5.1,62.3-14.6c-1.6-0.6-2.3-1.1-2.9-1c-2.2,0.2-4.4,0.6-6.6,0.9
	c-33.7,3.9-67.2,10.8-101.6,7.2c-22.1-2.3-27.8-8.5-25.8-29.6c0-0.7,0.3-1.4,0.7-1.9c5.5-11.5,13.8-20.6,23-29.2
	c11-10.3,25.1-15.7,37.2-24.3c1.3-0.6,2.7-1.2,4-1.7c0.8-0.4,1.6-0.8,2.5-1.2c7.3-3,14.4-6.2,21.8-8.9
	c64.7-23,129.7-45.1,189.8-78.9c20.1-11.3,40.4-22.1,61.5-33.6c-6.6-2.5-10.1,1-13.8,3.1c-52.8,29.3-105.8,57.9-163.1,77.8
	c-34.6,12-69.5,23-102.8,38.3c-20.3,7.2-37.4,19.6-52.9,34.2c-6.7,6.3-13.7,12.6-16.1,22.2L290.4,816.9z M726.7,420.5
	c-3.5,1.6-8.5,1.8-7.2,7.8c1.1,3.7-3.1,8.3,0.6,11c2.5,1.8,6.3,0.2,8.1-3.2c13-5.5,26-11.1,39-16.6c18.1-4.7,34.6-13.4,51.7-20.6
	c1.6-0.7,3.8-1.6,3.4-3.8c-0.6-3-3.4-2.7-5.4-2.3c-19.9,4.5-40.3,7.3-58.2,18.3c-1.3,0.3-2.6,0.6-3.9,0.9c-2-1.3-3.7-1-5,1.1
	c-1.3,0.3-2.7,0.7-4,1c-2.6-1.2-4.5-0.6-5.9,1.9c-3.6,1.1-6,4.9-10.3,4.1C728.4,419,727.5,419.3,726.7,420.5z M602.7,524.2l-0.2-0.2
	l0.6,0.3c4.2,1.2,7.1-1.4,10.2-3.3c39.8-23.9,80.5-45.9,122.6-65.6c5.4-2.5,12.1-3.5,16-9c-3.9,0.1-7.5,0.8-10.9,2.2
	c-45.5,19.3-89,42.6-131.3,68C606.8,518.4,602.4,519.2,602.7,524.2z M1052.6,774.3c-1.3,0.4-1.8,1.3-1.4,2.6
	c-0.3,0.6-0.6,1.2-0.9,1.9c-13.6,18.1-18.9,39.9-26,60.7c-6.2,18.3-1.7,37.6-0.2,56.4c0.4,4.7,2.1,9.6,5.5,13.3
	c2.4,2.6,4.9,7.1,9,4.4c3.5-2.3,0.7-6-0.7-9c-4.4-9.1-7.9-18.1-7.2-28.7c1.6-28.2,11-54.5,19.8-80.9c0.8-1.6,1.6-3.1,2.4-4.7
	c3.7-1.2,4.4-3.9,3.7-7.3c17.9-36.8,44.3-68.1,67.5-101.4c20.4-29.4,43.9-57,57.1-90.6c9.8-24.8,16.8-50.8,14.4-78.1
	c-0.9-10.1-3.2-19.9-9.6-28.2c-1.4-1.8-3.4-3.3-5.7-1.7c-2,1.4-0.7,3.3,0,5c12.9,29,6.7,58-1.8,86.3c-8.4,28.1-24.4,52.5-41.2,76.4
	C1108.4,691.4,1077,730.4,1052.6,774.3z M920.1,675.4c11.7-12.5,23.8-24.7,35.1-37.5c21.9-24.9,43.1-50.3,52.6-83.2
	c5.1-17.6,7.7-35,1.6-52.7c-1.2-3.5-2.1-9.5-7.7-7.1c-4.6,2,0.1,5.7,0.5,8.6c0.4,2.2,1.2,4.3,1.6,6.5c6.1,32.6-6.6,60.5-23.1,86.8
	c-17.3,27.6-41,50.2-62.4,74.5c-30.9,32.4-61.4,65.1-86.2,102.6c-18.3,27.7-34.1,56.8-37.4,90.7c-5.5,56.3,14,101.6,60.4,134.7
	c4.8,3.4,10.1,6.3,15.4,9.1c2.7,1.5,6,1.9,7.9-1.3c1.7-2.9,0.7-5.9-1.8-8c-2.3-1.9-4.8-3.5-7.4-5c-20-12.2-37.3-26.8-48.3-48.1
	c-19.9-38.6-22.7-78.3-8.3-119c14.1-39.9,41.4-71.5,67.3-103.8C893,706.9,908.6,692.9,920.1,675.4z M744.9,553
	c-79,42.2-151,96.7-234.9,130.5c0.9,1.6,1.8,3.2,2.7,4.8C593.5,649.3,672.3,606.8,744.9,553z M875.1,350c6.1,3.9,10.1,1.8,14.1,2.1
	c26.7,1.6,51.3-12.2,78-10.2c5.2,0.4,11.6,0.4,11.5-7.1c-0.2-8.5-7.3-6.9-12.6-6.5c-7.8,0.5-14.4,3.7-21.5,7.2
	c-10.1,5-22.4,4.4-33.9,5.6C898.9,342.3,887.2,343.3,875.1,350z M809.8,416.8c15-2.1,27.9-3.8,40.7-5.6c4.1-0.6,7.4-2.3,6.4-7.1
	c-0.9-4.6-4.3-7.3-9-6.3c-13.1,2.8-25.6,7.5-37.7,13.2c-1.6,0.8-3.5,2-2.9,4.2C808,417.6,810.2,416.8,809.8,416.8z M837,529.1
	c15,3.1,28.2,7.7,25.1,26.9c8.6,0.3,10.3-5.6,11.9-11.4c1.7-6.5-2.9-9.6-7.5-12.1C857.4,527.3,847.5,527.8,837,529.1z M1163.8,441.1
	c-0.6-0.8-1.2-1.7-1.9-2.5c-7.9-9-17-16.4-27.4-22.1c-1.7-0.9-3.8-1.4-5,0.4c-1.2,1.8,0.1,3.8,1.5,4.8c8.8,6.7,17.1,13.9,23.8,22.8
	c1.3,1.8,3.6,2.5,5.8,0.5C1161.8,443.9,1164.1,443.8,1163.8,441.1z M472.2,701c0.4,1.2,0.9,2.5,1.3,3.7c10.2-4.4,20.5-8.7,30.7-13.3
	c1.1-0.5,1.8-2.7,0.5-3.8c-1.9-1.6-3.8-0.9-5.9,0.5C490.6,693.8,481.4,697.3,472.2,701z M572,543c8.9-2.9,17-6.7,22.9-14.2
	C585.6,530.9,579.2,537.9,572,543z M391.1,619.6c8.6,0.3,15.6-0.5,24.2-7.1C405.1,612.8,397.2,610.2,391.1,619.6z M631.6,472.7
	c0.9-0.5,2.3-0.9,2.6-1.7c0.8-1.8-1-1.5-1.7-1.3c-0.9,0.3-1.7,1.1-2.5,1.6C630.5,471.8,631,472.2,631.6,472.7z"/>
<path class="st1" d="M691.7,742.8c-10.7,8.8-22.6,15.9-34.6,22.8c-13,7.5-17.7,15.8-13.4,23.3c4.2,7.5,13.4,7.5,26.9,0.3
	c3.5-1.9,6.6-5.1,11.1-4.4c-5.6,8.1-14.1,12.3-23,14.3c-13.6,3.1-23-8.3-18.9-21.9c0.6-2.1,2.5-3.8,0.9-8
	c-44.3,20.4-85.9,46.3-131.4,64.2c-46.1,18.2-92.1,36.2-142.2,41.4c7.6,3.2,15.1,2.4,22.5,1.5c35.6-4.1,68.9-15.9,101.8-29.3
	c29.5-12,59.4-22.6,90.7-28.6c25.7-4.8,50.4-2.2,74.2,9.5c26.5,13,41,35.3,49.6,61.9c11.3,34.8,21.1,70.1,39,102.3
	c4.3,7.8,9.4,15.3,13.4,23.3c5.2,10.4,2.8,22-5.2,28.6c-11,9.1-23.9,5.9-32.7-8.5c-12.6-20.8-23.6-42.4-32.1-65.2
	c-1.4-3.7-2.5-7.7-8-12.7c0.5,14.4,4,25.5,8.9,36c4.8,10.2,7.9,20.8,11.3,31.5c3.2,9.9-1.5,15.6-7.8,21.4c-6.6,6-14.4,9.5-22.4,4.2
	c-12.4-8.2-22.1-4.2-32.3,4c-16.9,13.6-28.7,9.4-35.8-12.2c-3.1-9.6-6.7-19.4-6.2-29.4c0.6-11.8-4.4-21.7-7.8-32.2
	c-3.1-9.6-9.5-18.7-19.3-20.1c-8.8-1.3-19.2-0.7-27.5,3.8c-3.5,1.9-11.2-3-10.1,4.4c0.7,5,7.6,5.2,12.1,6.6
	c22.2,7,35.8,23.8,47.3,42.4c8.7,14,1.6,31.1-12.6,35.1c-8.9,2.6-14.6-0.7-18.4-8.2c-2.5-5-4-10.5-6.7-15.4
	c-5.2-9.7-12.1-17.3-24.6-15.6c-9.4,1.3-18.3-2.2-27.8-1.8c-12.1,0.6-22.2,6.8-33.4,9.4c-3,0.7-5.8,3.8-3.1,6.8
	c3.9,4.4,6.6,11.5,14.7,9.1c1.3-0.4,2.5-1.2,4.2-2.1c-3,10.4-6.2,11.5-12.8,4.9c-7.4-7.3-14.5-14.2-25.8-16.3
	c-10.2-1.9-13.9-16.6-8.1-27.2c4.9-9,4.1-10.3-6.5-10.2c-2.2,0-4.5,0.2-6.7,0.2c-18.1,0.1-25.8-11.4-19.2-28
	c1.1-2.9,5.5-5.6,2.6-8.8c-2.7-3-7.3-1.9-10.6-0.6c-9.8,3.5-19.3,4.8-29.5,1c-7.2-2.8-14.3-5.1-15.4-14.1
	c-1.2-9.4,5.3-14.1,11.7-18.8c3.4-2.5,7.4-3.6,11.6-3.4c42,2.4,79.5-13.7,117.6-28.1c29.1-11,57.4-25.6,90.1-24.1
	c17.4,0.8,34.6,3.7,50.1,10.5c12.8,5.6,22.3,17.2,30.1,29.3c1.5,2.4,2.8,5,5.4,6.9c-0.5-14.2-6.7-25.8-15-37.1
	c-20.7-28.1-48.7-28.3-78.4-21.2c-36.1,8.7-70.5,22.3-104.4,37.1c-26.7,11.7-54.7,16.8-83,21.9c-14.3,2.6-28.2,2-42.2-0.7
	c-14.9-2.9-18.4-11.5-10-24.1c1.4-2.1,4.4-3.9,2.9-6.7c-1.7-3.2-5.3-2-8.1-2.1c-13.4-0.3-26.8-0.4-39.6-5.6
	c-16.3-6.5-25.8-23.9-20.7-40.7c3.1-10,2.5-22.8,16-26.8c-0.7,8-7.2,13.5-8.9,21.4c-5.3,24.8,4.9,40.6,29.9,43
	c45.9,4.5,90.6-1.7,134.8-14.4c35.2-10.1,68.9-24.5,101.8-39.8c48.7-22.7,97.6-45.6,143.2-74.6c0.6-0.4,1.4-0.3,2.1-0.4
	C689.3,739.6,690.5,741.2,691.7,742.8z M494.3,861.4c1.5-0.7,3-1.5,4.5-2.2c2.6,0.3,4.9-0.2,6.8-2.2c2.5,0.1,4.8-0.2,6.6-2.3
	l0.6-0.4l-0.4,0.6c-2.6-0.3-4.9,0-6.6,2.3c-2.5,0-5,0-6.7,2.2c-1.9,0-3.5,0.6-4.5,2.3c-0.6,0.3-2-0.8-1.6,1
	C493.3,862.2,493.8,861.8,494.3,861.4z M632.7,971.6c-4.9-0.7-4.5-5.3-6.2-8.4c-6.1-10.9-10-23.1-20.8-31.3
	c-16.7-12.8-34.9-14-54.1-8.8c-40,10.6-79.9,21.7-121.2,26.3c-5.9,0.7-11.7,2.4-16.3,6.8c-5.2,4.9-6.9,10.9-4.2,17.3
	c2.5,5.9,8.4,5.5,13.7,4.9c11.9-1.4,23.7-3,35.5-4.6c26.3-3.4,52-9.5,76.6-19.3c26-10.4,48.1-2.5,59.6,22.5c4.1,8.8,6.8,18,7.7,27.9
	c0.9,10.4,2.7,20.7,4.7,31c1.2,6.3,3.9,12.5,10.9,14.4c7.2,2,12.9-1.4,18.1-6.3c5.4-5.1,4.8-11.2,3.9-17.7
	c-2.5-17.6-4.9-35.2-7.3-52.8c1.6-1.4,5.4,0,5.3-2.9c-0.5-12.6-1.5-25.1-10-36.5c-4.6,7.4-3,13.1-0.4,19.1
	C630.8,958.9,635.9,964.4,632.7,971.6z M459.6,934.5c5.1,3.9,8.7,1.7,12.1,1.4c22.9-2.1,44.2-10.7,66.3-16
	c23.2-5.6,46.3-12.2,68.5,4.2c5,3.7,14.5,6.5,18.1,0c3.4-6.1-3.7-12.7-9-16.3c-13.7-9.1-29.3-13.1-45.7-11.3
	C530.7,901,496.9,920.8,459.6,934.5z M692.3,918.1c3.2-1,3.3-2.6,3.1-4c-3.1-20.6-10.2-40.4-22.8-56.3c-15.3-19.2-36.5-29.3-62.4-30
	c-30.8-0.7-58.2,11-86.7,19.2c-1.7,0.5-3.2,2-1.3,5.1c4.7-1.4,9.5-3.1,14.5-4.3c24.1-5.5,47.3-13.9,72.8-13.3
	c32.1,0.7,58.7,25.1,71.4,54.3C685.2,898.6,686.4,909.5,692.3,918.1z M655.9,953.3c-0.6-33.5-12.5-55.6-33.8-66.3
	c-26.4-13.2-65.8-13.2-85.4,1.3c16.8-3.7,32-4,47.1-5.4c33.7-3,58.1,23.7,65.5,48.4C651.2,937.7,653.1,944,655.9,953.3z
	 M576.8,1029.4c-0.1-15.9-26.9-40.6-43.8-40.4c-2.5,0-4.4,0.2-4.6,3.3c-0.1,3,0.9,5,4,5.8c18.3,4.7,29.6,17.5,38.5,33.1
	c0.9,1.6,1.8,3.6,4.1,2.9C577.1,1033.4,576.7,1031.2,576.8,1029.4z M480.9,876.2c2.8-0.9,6.7-0.7,7.5-4.6c0.4-2.1-2-2.7-3.9-2.6
	c-2.9,0.1-6,0.3-6.9,3.8C477,875,478.6,875.9,480.9,876.2z M509.2,990.3c6,2.4,9.3,5.7,14,4.1c1.6-0.6,0.8-2.6-0.2-3.7
	C519.7,987,515.9,986.4,509.2,990.3z M344.3,893.2c8.2,3.8,14.5,2.9,24.2,0.9C359.1,891.2,353,888,344.3,893.2z"/>
<path class="st1" d="M760.5,835.6c4,4.5,5.5,2.2,7.3-2.2c3.7-9,4.8-19.3,12.9-26.1c-0.6,12.9-7.8,24-10,36.5
	c-8.1,45.9-3.2,89.5,22.7,129.5c11,17,23.7,32.5,38.5,46.3c2.7,2.5,5.3,5.3,7.4,8.3c7.6,10.7,7.1,22.3-1,29.3
	c-8.2,7.1-20.3,6.7-29.4-1.9c-21.8-20.6-40.6-43.5-55.6-69.6c-15.1-26.2-21.3-55.2-24.3-84.2c-1.9-18,1.3-37.5,7.7-55.5
	c2.7,0.6,5.5,1.1,8.2,1.7c2,2.8,3.4,6.1,2.4,9.5c-5.2,19.3-0.5,38.6,0.4,57.9c0.4,8.4,4.4,19,10.5,25.7c-7.7-25.6-5.9-50.3-6.4-74.8
	C751.8,855.6,752.1,844.2,760.5,835.6z M769.2,968.9c-2-0.5-2.6,0.4-2.3,1.6c0.4,1.3,1.2,2.8,2.2,3.4c1.1,0.7,2.1-0.4,1.8-1.6
	C770.5,970.9,769.7,969.8,769.2,968.9z M762.1,951.7c-0.8-1-1.5-2.5-2.6-3c-1.3-0.5-1.8,1.1-1.2,2c0.6,1.1,1.8,2,2.7,3
	C761.2,953.2,761.5,952.6,762.1,951.7z M764.7,962.2l-0.6-0.1l0.3,0.7L764.7,962.2z"/>
<path class="st0" d="M1170.4,802.1c-3,2.5-6,4.9-9,7.4c-6.6,3.4-13.5,4-20.6,2c-1.8-2-3.6-4-5.4-6c0.9-3.2,0.7-6.3-0.5-9.4
	c11.1-16,26.2-28.3,39.2-42.6c31.9-34.7,59.7-72.2,78.6-115.6c8.5-19.6,16.2-39.6,19.7-60.9c2-2.2,1-4.9,1.2-7.4
	c2.7-9-0.5-18.9,1.2-27c2.4-11.1,0.9-21.2-0.3-31.6c-1.3-10.3-4.6-20.3-8.3-30c-0.3-0.9-0.7-1.7-1-2.6c0-2.4-4-4.8,0.1-7.1
	c5,0.6,4.6,5.3,5.8,8.3c11,27.4,13.1,55.9,8.8,84.8c-9.8,66.1-41,122.3-82.5,173.4c-3.1,1.5-5.1,4-6,7.3
	c-14.1,13.4-24.2,30.4-39.3,42.9c-2.7,2.2-4.2,6.1-6.2,9.2c-1.2,1.9-2.4,4.1-0.7,6.1c1.9,2.4,4.8,2.3,7.2,1.2c2.6-1.2,5.2-3,7.1-5.1
	c14.4-15.2,28.6-30.5,42.8-45.7c4.5-1.1,5-5.5,7.1-8.6c17.3-20.7,34.1-41.9,46.8-65.7c17-32.1,30.7-65,37.3-101.6
	c4.7-26.1,3.2-50.5-1.2-75.6c-3.1-17.7-13.5-32.7-19.8-49.3c0.8-0.7,1.5-1.4,2.3-2.1c10.3,16.1,17.6,33.3,22.5,52
	c14.4,54.6-2,104.1-22.4,153.3c-1.6,3.9-3.5,7.5-3.5,12.2c0,2.3-0.9,4.1,1.7,4.9c0.6,0.2,1.9-0.9,2.5-1.7c0.3-0.4,0.4-1.6,0-1.9
	c-1.8-2-4.1-1.5-6-0.5c-3.5,1.9-4.6,5.7-6,9c-6.3,14.8-15.2,27.8-25,40.3c-1.6-0.2-2.3,0.5-2.2,2.1c-0.1,0.6-0.3,1.2-0.6,1.8
	c-4.6,3-6.6,8-9.6,12.2c0,0-0.5,0.7-0.5,0.7c-2.5,0.8-3.4,2.7-3.3,5.1c-0.7,0.8-1.4,1.5-2.1,2.3c-3.1,1.1-4.9,3.1-4.6,6.5
	c0,0-0.1,0.1-0.1,0.1c-7.9,5.8-13.9,13.3-18.2,22.1c-0.7,0.8-1.3,1.7-2,2.5C1184.3,780.6,1177.3,791.3,1170.4,802.1z"/>
<path class="st1" d="M817.3,772.3c-9.5,18.9-19.6,37.5-26.2,57.8c-15.5,46.9-11.9,92.1,13.4,134.6c16.1,27.1,41.9,44,68.7,59.1
	c6.4,3.6,13.5,1.7,19.8-2.8c6.5-4.7,5.9-10.5,3.9-16.9c-2.3-7.7,1.2-9.7,7.9-7.8c5.3,1.5,10.4,4.1,15.7,5.6
	c7.6,2.1,15.2,2.1,19.9-5.5c4.6-7.4,1.9-14.4-3.1-20.6c-6.3-7.6-15.2-12-23.2-17.4c-17.9-12.1-33.9-25.9-41-47.2
	c-1.7-5.1-4.9-10.3-1.4-16c2,0.7,3,2.2,3.4,4.1c6.7,30.1,29.3,46.4,53.4,61.3c6.4,3.9,12.7,7.9,16.7,14.5c4.1,6.9,7.3,13.8,3.3,22
	c-4.3,8.8-11.8,12.1-20.9,12.4c-4,0.2-8.2-0.4-12.1-1.4c-5.7-1.4-7.9,0.4-9,6.2c-2.7,15-17.8,23.9-32,17.8
	c-52.6-22.8-85.9-61.8-95.7-119c-6.7-39.3-1.1-76.8,18.5-112c1.8-3.2,4-7-0.7-9.7c-4.9-2.9-6.6,1.1-8.3,4.5
	c-1.3,2.7-2.8,5.3-5.4,6.9c-1.9-9.7,6.1-15.5,9.6-23c2.5-5.5,7.2-10,10.8-14.9C805.9,771.7,812.4,770.5,817.3,772.3z"/>
<path class="st0" d="M1114.2,807c-7.4,4-4.8,14.8-12.5,18.5c0,0,0.2,0.2,0.2,0.2c-1-1.5-2-3-3-4.6c5.7-14.8,12.8-28.9,20.8-42.6
	c1.4-0.4,1.9-1.3,1.6-2.6c9.7-14.1,18.5-28.9,29.3-42.1c10.3-12.6,18.5-26.5,28.6-39.3c31-39.3,59.4-79.7,65.7-132.6
	c4.4-36.6,3.5-70.5-14.6-103c1.2-1,2.5-2,3.7-3c12.9,22.5,20.2,46.5,19.3,72.7c-0.3,10-1.2,20-1.9,30.1c-0.5,3.2-1,6.4-1.5,9.6
	c-6,36.6-20.7,69.4-42.6,99.3c-21.8,29.8-43.3,60-65,89.9c-7.9,10.9-14.6,22.4-21,34.2c-2.8,1-3.7,2.8-2.9,5.6
	C1117.1,800.4,1115.6,803.7,1114.2,807z"/>
<path class="st0" d="M1331.1,487.7c1.4-1.1,2.7-2.3,4.1-3.4c1.2,3.8,2.5,7.6,3.7,11.4c-0.1,0.3-0.4,0.7-0.4,0.9
	c0.2,0.6,0.6,1.1,0.9,1.7c9,34.8,6.1,69.3-1.6,103.9c-4.5,20.4-11.5,40-18,59.8c-3.1,9.4-9,12.4-17.9,9.9c-8.9-2.5-12-9.7-8.7-19.4
	c5.1-15.2,10.9-30,15.1-45.6c11.6-43.3,16.6-86.5,0.1-129.7c1-0.7,2-1.4,3-2.1c14.1,28.5,14.3,58.8,11.2,89.3
	c-3.2,30.6-12.5,59.7-23.1,88.5c-2,5.5-2.9,10.4,3.9,12.7c6.2,2.2,9.3-0.6,11.6-6.7c9.6-25.8,17.1-52.2,21.9-79.2
	c5-28.6,5-57.2-3.6-85.3c0.1-0.3,0.4-0.7,0.3-0.9c-0.2-0.6-0.6-1.1-0.9-1.6C1332.1,490.4,1331.6,489.1,1331.1,487.7z"/>
<path class="st0" d="M1352.4,476c1.7-0.1,3.5-0.3,5.2-0.4c1.5,12.4,8.4,23,9.7,35.9c2.3,23.2,4.5,46.1,0.5,69.3
	c-0.8,4.8-1.6,9.6-1.8,14.4c-0.4,7.2,5.9,6.6,10.2,7.8c5.8,1.7,5.3-3,5.9-6.7c6.7-36.4,6.9-72.3-6.4-107.5c-0.6-1.5-0.6-2.8,2-4.6
	c8,10.9,9.5,24,11.4,36.6c4.3,28.5,2,56.9-2.8,85.2c0,0-0.5,0.7-0.5,0.7l0.4,0.8c-10.6,3.8-19.7,3-26.4-7.4c-1.1-1.7-6.2-2-0.9-4.9
	c2.2-1.2,2-3.8,2.4-6c6.4-36,6-71.6-6.6-106.4c0.5-1.2,0.3-2.2-0.9-2.9C1353.4,478.6,1352.9,477.3,1352.4,476z"/>
<path class="st1" d="M557.1,479.4c-0.5,2.3-1.8,3.6-4.2,3.6c-1.3-10.2-6.3-10.2-13.7-5.2c-11.6,7.8-20.5,19.1-33.2,25.4
	c-7.1-3.2-8.7,5.8-14.2,6.3c-0.8,0.1-1.5,0.1-2.3,0.2c0,0,0.4-0.1,0.4-0.1c-4.5,3-9,6.1-13.6,9.1c-0.9-1-1.8-2.1-2.8-3.1
	c21.6-22.2,44.7-42.5,71.8-57.8c5.3,5.9,10.8-1.6,16.1,0.3c0.7,0.9,1.4,1.8,2.2,2.7C549.6,469.1,549.5,469.3,557.1,479.4z"/>
<path class="st1" d="M539.1,509.6c25.1-12.2,47.2-29.7,72.6-41.5c23.6-11,46.1-24.2,71-32.6c1.7-0.6,3.4-1,6-1.7
	c-1.4,5.3-5.4,6.4-8.7,7.8c-45.2,19.6-88.5,42.7-129.5,70c-0.6,0.4-1.4,0.4-2.1,0.5C546.3,507.4,542,511.1,539.1,509.6z"/>
<path class="st0" d="M473.7,515.6c0.9,1,1.8,2.1,2.8,3.1c-0.5,0.4-0.7,0.9-0.6,1.5c-17.7,14-32.5,30.9-47.8,47.2
	c0.8,0.8,1.6,1.6,2.3,2.4c15.8-15.9,31.6-31.8,47.3-47.7c4.3-4.1,9.7-7,12.3-12.6c0,0-0.4,0.1-0.4,0.1c0.8-0.1,1.5-0.1,2.2-0.2
	c5.4-0.5,7.1-9.5,14.2-6.3c-20.8,18-40.6,37-59.2,57.2c-4.1,4.4-8.3,8.6-13.7,11.3c-3,1.5-6.8,3.1-9.3,0c-2.7-3.3,0.3-6.2,2.6-8.7
	C441.3,546.5,457,530.5,473.7,515.6z"/>
<path class="st1" d="M936.3,837.4c-3.9,16.2-5.9,32.7-6,49.4c-3.4-1.6-3.2-4.8-3.2-7.7c0.1-5.3-0.9-9.6-6.7-11.4
	c-3-1-5.4-2.9-5.1-6.5c0.3-4.1,3.3-5.5,6.7-6.6c2.7-0.9,6.5-1,6.5-4.9c0-3.9-3.2-5.5-6.5-6.7c-3.5-1.3-7-2.6-10.2-4.4
	c-8.7-5-17.2-6.2-25.7,0.1c1.5-8,5.8-13.9,13-17.8c1,3.6,2.1,7,6.3,8.5C915.4,832.7,925.1,838,936.3,837.4z"/>
<path class="st1" d="M727,758.1c0.3-2.3,1.3-3.4,3.6-2c10.2,10.3,26.4,6.5,37.1,15.7c-0.7,2.7-1.6,5.3-4.1,7
	c-5.8-8.7-10.5-2-15.6,0.9c-6.3,3.7-11.9,11.5-20.5,4.2c-1.7-1.5-3.9-2.7-3.1-5.3c1-2.9,3.5-2,5.7-1.7c1.1,0.1,2.2,0.6,3.2,0.8
	c4.6,0.8,9.9,0.7,11.5-3.9c1.6-4.9-3.9-6.5-7.4-8.2C733.5,763.6,728.9,762.9,727,758.1z"/>
<path class="st1" d="M353.1,662.4c-1.6,2.9-3.1,5.7-4.7,8.6c-15.8,7.6-28.3,20-42.7,29.6c-14.4,9.6-28,20.3-42,30.6
	c-0.7-0.9-1.4-1.9-2.1-2.8C292.2,706.4,322.6,684.4,353.1,662.4z"/>
<path class="st1" d="M1308.9,1153.3c-7.8-0.2-4.4,9.5-10.5,9c-6.6-0.5-15.1-3-16.2-9.6c-1.1-7.1,8.1-9.6,13.4-10.9
	C1302.2,1140.1,1303,1148.8,1308.9,1153.3z"/>
<path class="st1" d="M384.9,615.7c-0.4,0.6-0.9,1.3-1.3,1.9c-24.4-9.5-48.8-19-73.2-28.6c0.4-1,0.8-2.1,1.2-3.1
	C336.1,595.9,360.5,605.8,384.9,615.7z"/>
<path class="st1" d="M1062.4,1043.6c-1.2,5.1-2.9,10-9.1,9.1c-6.2-0.9-11.5-3.9-11-11.3c0.3-5.6,3.9-8.8,9.6-8.3
	C1058.2,1033.6,1061.7,1037.4,1062.4,1043.6z"/>
<path class="st1" d="M1121.2,981.7c-0.1,6.4-3,9-8.5,8.8c-5.9-0.1-9.2-3.5-9.3-9c-0.1-5.8,3.8-8.9,9.4-8.7
	C1118.9,973,1121,977.1,1121.2,981.7z"/>
<path class="st1" d="M698.3,821.2c0.2-3.7,3.2-8-2.2-10.6c-2.6-1.2-4.7-2.9-2.3-5.9c2-2.6,4.4-6.5,7.9-4c7.5,5.4,12.9,1.5,19.2-2.5
	c-4.3,11.1-13.9,16.7-22.7,22.9L698.3,821.2z"/>
<path class="st1" d="M1179.5,922.7c-0.6,5.3-3.3,8.8-8.2,9.3c-4.7,0.5-7.8-2.5-8.1-7.1c-0.4-5.1,2.4-8.4,7.7-8.8
	C1175.7,915.8,1178.2,918.7,1179.5,922.7z"/>
<path class="st1" d="M1208.6,894.2c-0.2,4.6-2.6,7.1-6.9,7.1c-4.5,0-9.7-1-10.4-6.1c-0.6-4.3,3.1-7.6,7.6-7.9
	C1203.7,887,1207.4,889.2,1208.6,894.2z"/>
<path class="st0" d="M1287,445c1.2-1.2,2.3-2.3,3.5-3.5c0,0,0.4,0.4,0.4,0.4c0.6,0.7,1.2,1.3,1.8,2c6.9,10,16.2,18.5,18.5,31.2
	c-1,0.7-2,1.4-3,2.1C1302.3,465.7,1294.6,455.4,1287,445z"/>
<path class="st1" d="M370.9,654.4c-2.5,2.5-5.4,3.7-8.9,2.9c9.4-10.6,20.6-18.6,33.2-24.8l0.6,0.6c-0.8,5-2.7,7.9-8.6,9.5
	C380.8,644.1,374.4,647.8,370.9,654.4z"/>
<path class="st1" d="M307.3,451.2c0.5-3.5,2.7-5,6-5.1c3.2-0.1,6.1,0.9,6,4.7c-0.1,3.4-2.8,5-6,5.2
	C310,456.2,307.6,454.9,307.3,451.2z"/>
<path class="st1" d="M1183.3,952.8c-4-0.7-7.5-2.1-7.2-6.9c0.3-4.6,3.7-6.2,7.8-6c3.7,0.1,6.8,1.6,6.7,5.8
	C1190.5,950.1,1187.5,952.2,1183.3,952.8z"/>
<path class="st1" d="M871.5,891.5c-4.7-15.7-0.1-29.4,9.1-42.1C877.6,863.4,874.5,877.4,871.5,891.5z"/>
<path class="st1" d="M257.2,492.9c-3.2-0.1-5.8-0.7-5.7-4.1c0.1-3.7,3-4.7,6.2-4.7c2.7,0,5.5,0.8,5.4,4.1
	C263,492,259.8,492.5,257.2,492.9z"/>
<path class="st1" d="M290.8,469.7c-0.6,2.9-2.4,4.5-5.3,4.4c-2.9-0.1-5-1.5-4.9-4.6c0.1-3.1,2.4-4.4,5.2-4.4
	C288.6,465.1,290.6,466.5,290.8,469.7z"/>
<path class="st1" d="M552.5,453.5c0.7-3.7,3.7-5.3,6.7-6.8c0.3,0.3,0.7,0.7,1,1c1.9,4.2,4.7,6.8,9.3,3.8c2.5-1.6,4.5-3.8,7.8-2.4
	c-1.2,7.8-9,7.8-13.5,11.7c-0.7-0.9-1.4-1.8-2.2-2.7C559.8,454.1,555.8,454.5,552.5,453.5z"/>
<path class="st1" d="M470.3,420.8c-0.4,3-2.1,4.6-5.1,4.4c-2.7-0.2-5.3-1.3-5.3-4.3c0-2.9,2.3-4.4,5.2-4.4
	C467.9,416.4,469.8,417.8,470.3,420.8z"/>
<path class="st1" d="M1253.8,768.5c-2.8-0.1-5.5-0.7-5.3-4.1c0.2-3.4,3.5-3.3,5.9-3.5c2.9-0.3,5.4,0.9,5.2,4.1
	C1259.5,768.7,1256.2,768.1,1253.8,768.5z"/>
<path class="st1" d="M1199.7,813.1c2.6,0.2,5.3,0.5,5.6,3.8c0.3,2.8-2,3.6-4.2,3.7c-2.9,0.1-6.2,0-6.1-4.1
	C1195,813.8,1197.4,813.4,1199.7,813.1z"/>
<path class="st1" d="M896.1,884.1c3.2,0.5,5.5,2.1,5.3,5.7c-0.2,3.1-2.4,4.5-5.3,4.2c-2.9-0.2-4.7-2.2-4.8-5.1
	C891.3,885.9,893,884.3,896.1,884.1z"/>
<path class="st1" d="M1451.5,628.3c-11.8-2-23.1-5.7-34-10.7c0,0,0.4-0.5,0.4-0.5c11.7,2.3,23.2,5,33.5,11.4
	C1451.4,628.5,1451.5,628.3,1451.5,628.3z"/>
<path class="st1" d="M379.8,604.8c-3.2,0.9-5.1-0.3-5.3-3.5c-0.3-4.4,3.2-4,6-4.2c2.8-0.2,5.3,0.4,5.5,3.7
	C386.3,605.6,382.3,604.1,379.8,604.8z"/>
<path class="st1" d="M1285.7,740.5c-4.2,1.8-7.6,3.1-10.4-0.7c-0.8-1.1-1.7-3.3,0.3-3.5C1279,736.1,1283,735.5,1285.7,740.5z"/>
<path class="st1" d="M407.4,426.9c-0.6,2.6-2.4,3.6-4.9,3.2c-2-0.3-3.5-1.5-3.2-3.7c0.3-2.6,2.3-3.6,4.7-3.2
	C406,423.6,407.4,424.7,407.4,426.9z"/>
<path class="st0" d="M552.5,453.5c3.3,0.9,7.3,0.6,9.1,4.6c-5.3-1.9-10.8,5.6-16.1-0.3C547.8,456.4,550.2,455,552.5,453.5z"/>
<path class="st1" d="M387.8,1096.7c-7.5-1.2-11.4-2.8-12.6-8.2c-0.1-0.6,1.2-2.2,1.8-2.2C382.8,1086.6,383.9,1091.2,387.8,1096.7z"
	/>
<path class="st1" d="M1395.6,610.2c8,0.4,15.5,2.6,22.3,6.9c0,0-0.4,0.5-0.4,0.5c-7.8-0.9-15.3-2.9-22.1-7.1
	C1395.4,610.5,1395.6,610.2,1395.6,610.2z"/>
<path class="st1" d="M1249.9,568.1c0.5-3.2,1-6.4,1.5-9.6c1.3,6.8,8.4,5.4,12.2,8.6c-0.4,0.6-0.9,1.2-1.3,1.8
	C1258.2,568.7,1254.1,568.4,1249.9,568.1z"/>
<path class="st1" d="M386.4,624.4c6.3,0.8,13.5-2.6,18.3,4.3c-2.1,0.9-4.2,1.8-6.3,2.7c-0.4-0.4-0.7-0.8-1.1-1.3
	c0.9-1.8,1.6-3.5-1.4-3.8C392.7,625.9,389.2,626.9,386.4,624.4z"/>
<path class="st0" d="M1265.5,444.5c0.7-1.6,1.4-3.2,2.2-4.8c1,0.8,2,1.5,3,2.3c-0.4,1.5,0.2,2.2,1.6,2.5c1.3,2,3,3.8,2.6,6.5
	c-0.8,0.7-1.5,1.4-2.3,2.1C1269,451.2,1268.1,447.2,1265.5,444.5z"/>
<path class="st1" d="M1226.5,734.6c2.9-4.3,5-9.2,9.6-12.2C1234.5,727.7,1231.8,732.2,1226.5,734.6z"/>
<path class="st1" d="M682.3,784.4c1.8-4.1,5.2-5.6,9.4-5.6C690,783.1,686.7,784.6,682.3,784.4z"/>
<path class="st1" d="M1134.9,796.1c1.2,3.1,1.4,6.2,0.5,9.4C1130.4,802.6,1130.7,799.4,1134.9,796.1z"/>
<path class="st1" d="M1273.6,569.6c-0.1,2.5,0.8,5.2-1.2,7.4c-0.2-6.6-6.6-5.5-10.1-8.1c0.4-0.6,0.8-1.2,1.3-1.8
	C1267,568,1270.3,568.8,1273.6,569.6z"/>
<path class="st1" d="M1386.3,607.5l-0.4-0.8c0,0,0.5-0.7,0.5-0.7c3.5,0.5,6.8,1.4,9.2,4.2c0,0-0.3,0.3-0.3,0.3
	C1392,610.7,1388.7,610.5,1386.3,607.5z"/>
<path class="st1" d="M361.7,657.4c-2.7,1.5-5.5,3.1-8.2,4.6C353.8,656.2,358.1,657.5,361.7,657.4z"/>
<path class="st1" d="M1216,749.2c-0.3-3.5,1.5-5.5,4.6-6.5C1221.2,746.4,1218.6,747.9,1216,749.2z"/>
<path class="st1" d="M698.2,821c-0.5,0.9-1,1.7-1.5,2.6c-0.4-0.4-0.7-0.8-1.1-1.2c0.9-0.4,1.8-0.9,2.7-1.3
	C698.3,821.2,698.2,821,698.2,821z"/>
<path class="st1" d="M698,775.1c0.8-2.5,2.5-3.3,5-2.9C702.2,774.8,700.6,775.9,698,775.1z"/>
<path class="st1" d="M1222.7,740.4c-0.1-2.5,0.7-4.3,3.3-5.1C1227.6,738.7,1224.5,739.1,1222.7,740.4z"/>
<path class="st1" d="M1118.5,797.2c-0.9-2.8,0.1-4.7,2.9-5.6C1122.1,794.3,1121.2,796.2,1118.5,797.2z"/>
<polygon class="st1" points="553,437.9 552.9,437.2 553.5,437.6 "/>
<path class="st1" d="M547.4,486.7c-0.7,1.8-2,2.7-4,2.6C544.2,487.5,545.5,486.6,547.4,486.7z"/>
<path class="st1" d="M292.5,579c-0.3-0.1-0.7-0.2-1-0.3C291.8,578.8,292.1,579,292.5,579C292.4,579.1,292.5,579,292.5,579z"/>
<path class="st1" d="M551.2,484.3c-0.6,1.7-1.8,2.4-3.6,2.3C548,484.6,549.2,483.9,551.2,484.3z"/>
<path class="st1" d="M1236.6,720.6c-0.1-1.6,0.6-2.3,2.2-2.1C1238.1,719.2,1237.4,719.9,1236.6,720.6z"/>
<path class="st1" d="M395.2,632.4c0.7-0.8,1.4-1.6,2.2-2.4c0.4,0.4,0.7,0.8,1.1,1.3c-0.9,0.6-1.8,1.1-2.6,1.7L395.2,632.4z"/>
<path class="st1" d="M383.8,621.4c0.3,0.7,0.6,1.5,0.8,2.2c-0.4-0.4-0.9-0.8-1.2-1.3C383.4,622.1,383.7,621.7,383.8,621.4z"/>
<path class="st1" d="M1339.5,498.3c-0.3-0.6-0.7-1.1-0.9-1.7c-0.1-0.2,0.2-0.6,0.4-0.9c0.3,0.5,0.7,1.1,0.9,1.7
	C1339.9,497.6,1339.6,498,1339.5,498.3z"/>
<path class="st1" d="M1353.9,480c1.2,0.7,1.5,1.6,0.9,2.9C1354.6,481.9,1354.3,480.9,1353.9,480z"/>
<path class="st1" d="M708.9,768.5c0.4-1.3,1.2-1.8,2.5-1.4C711,768.4,710.2,768.9,708.9,768.5z"/>
<path class="st1" d="M292.4,579.1C292.4,579.1,292.5,579,292.4,579.1C292.5,579,292.4,579.1,292.4,579.1z"/>
<path class="st1" d="M695.5,776.6c0-1.2,0.4-1.5,1.5-0.9C697,777,696.5,777.2,695.5,776.6z"/>
<path class="st1" d="M1272.3,444.4c-1.4-0.3-2.1-1.1-1.6-2.5C1272,442.2,1272.5,443.1,1272.3,444.4z"/>
<path class="st1" d="M920.1,675.4c-11.5,17.5-27.2,31.5-40.2,47.7c-25.9,32.4-53.1,63.9-67.3,103.8c-14.4,40.7-11.7,80.4,8.3,119
	c11,21.3,28.4,36,48.3,48.1c2.5,1.5,5.1,3.1,7.4,5c2.5,2.1,3.5,5.1,1.8,8c-1.9,3.2-5.2,2.8-7.9,1.3c-5.3-2.8-10.5-5.7-15.4-9.1
	c-46.5-33.1-65.9-78.4-60.4-134.7c3.3-33.9,19-63.1,37.4-90.7c24.8-37.4,55.4-70.1,86.2-102.6C918.9,672.7,919.5,674.1,920.1,675.4z
	"/>
<path class="st1" d="M349,781.5c2.2,7.1,8,0.5,11.4,2.9c-4.2,4.4-10.2,3.9-15.3,6c-1,0.4-2.1,0.7-3.1,1.2c-9.6,4-18,14.5-14.9,19.5
	c5.6,9,14.9,4.5,21.4,2.8c23-6.1,45.5-13.8,68.2-21.2c15.9-5.1,31.2-12.1,47.9-14.5c1.9,1.3,3.8,2.6,5.7,3.9c-4,4.4-9.8,5.3-15,7
	c-15.4,5-30.4,11.2-46.3,14.8c-9.6,2.1-18.2,13.6-15.2,20.6c4,9.6,12.8,6.3,19.4,4.4c36.9-10.8,73.4-22.6,108.4-38.6
	c11.4-5.2,23.2-9.7,34.8-14.5c3,2.1,3.1-0.3,3.4-2.2c0.7-1.7,1.8-2.6,3.7-2c-0.5,2.6,0.8,4.2,2.7,5.5c-26.9,16.2-55.6,28.7-85,39
	c-41.2,14.5-83.2,27.6-127.7,27.4c-3.3,0-6.7,0.8-9.7-1.5c3.3-3.5,7.6-2.4,11.6-2.6c8.2-0.2,16.4-0.4,24.5-2.2
	c3.5-0.8,7.4-1.9,6.8-5.9c-1.1-8.4,2.6-15.6,5.9-25.2c-16,4.4-30.1,8.1-44.2,12.2c-15.8,4.5-18.2,3.7-27.6-9.2
	c-0.7-1-2.6-1.2-3.9-1.8C324.7,795.1,335.4,786.6,349,781.5z"/>
<path class="st1" d="M653.6,523.2c-0.5-2.7-2.8-2-4.5-2.3c25.8-17.3,53.4-31.3,81.3-44.4c33.8-15.9,68-30.9,105.2-36.8
	c37.7-6,75.7-8.6,113.3,0.7c15.5,3.8,32.7,4.3,45.1,16.8c-5.8,2.3-6.5,8.8-10.5,12.5c0.3-7.6-4.1-11.3-10.7-13.7
	c-46.4-16.5-93.8-19.9-142-9.9c-47.1,9.8-90.9,28.5-132.6,52.1C683.4,506.6,668.5,514.9,653.6,523.2z"/>
<path class="st1" d="M842.8,796c0.7,4.4,0.4,8.4-2.2,12.6c-18.9,31-25.3,64-15.1,99.4c2.3,7.9,3.2,16.7,8.9,23.3
	c3.8-1.6,2.5-4.1,2.2-6c-5.6-29.1-0.4-56.9,10.5-83.9c3.6-8.9,8.9-17.1,11-26.7c0.8-3.6,3.7-5.4,7.6-5.3
	c-9.5,24.1-20.2,47.6-24.7,73.5c-5.4,30.6,2.5,56.8,23.8,79.2c7.6,8,15.3,16,21.8,26.2c-12.7,0.4-19.8-7.9-27.6-14.3
	c-52.6-43.5-55.7-112.9-24-166.2C837.4,803.7,837.6,798.1,842.8,796z"/>
<path class="st1" d="M878.2,813.6c5.2,2.9,7-1.7,10-4.3c5.2-4.5,7.3-12.5,15.3-13.7c-10,15.6-22.8,29.2-31.7,45.9
	c-23.5,43.7-12.8,91.6,26.5,119.9c7.6,5.4,15.1,10.9,22.6,16.4c2.1,1.6,4.3,3.7,2.8,6.6c-1.9,3.6-5,2.2-7.8,1.2
	c-41.4-14.8-71.9-58.3-65.5-102.2C853.9,859.2,858.5,832.7,878.2,813.6z"/>
<path class="st1" d="M298.8,821c-2.1,21.1,3.7,27.3,25.8,29.6c34.3,3.5,67.8-3.4,101.6-7.2c2.2-0.3,4.4-0.7,6.6-0.9
	c0.6-0.1,1.3,0.4,2.9,1c-20.2,9.5-40.9,13.4-62.3,14.6c-14.1,0.8-28.1,2.7-42.1,3.8c-10,0.8-20.1,1.2-30-1.2
	c-17.2-4.2-23.1-19.3-13.9-35.3c0.2,5.1,0,10.3,0.6,15.4c1.1,10.1,7.2,14.2,18.1,12.6C291.9,838.4,290.1,830.6,298.8,821z"/>
<path class="st1" d="M1050.3,778.7c1.5,5.4-4.9,10.7,0,16.1c-8.8,26.4-18.2,52.6-19.8,80.9c-0.6,10.6,2.8,19.7,7.2,28.7
	c1.5,3,4.2,6.7,0.7,9c-4.1,2.7-6.6-1.8-9-4.4c-3.4-3.7-5.1-8.6-5.5-13.3c-1.5-18.8-6-38,0.2-56.4
	C1031.4,818.6,1036.7,796.8,1050.3,778.7z"/>
<path class="st1" d="M957.7,825.1c0.1,3.7-1.9,8.2,3.4,10.2c-1.5,11-6.7,20.9-7.9,32.2c-2.8,26.9,6.7,47.1,28.8,62.2
	c3.8,2.6,12.3,4.6,8.3,10.7c-3.8,5.7-9.4-0.8-13.3-3.3c-33.6-21.8-44.9-61.4-27.5-97.9C951.6,834.3,949.6,826.5,957.7,825.1z"/>
<path class="st1" d="M602.7,524.2c-0.3-5,4.1-5.8,7-7.5c42.3-25.4,85.8-48.7,131.3-68c3.3-1.4,7-2.1,10.9-2.2
	c-3.9,5.6-10.6,6.5-16,9c-42,19.7-82.8,41.7-122.6,65.6c-3.1,1.9-6.1,4.6-10.2,3.3C603.1,524.3,602.7,524.2,602.7,524.2z"/>
<path class="st1" d="M875.1,350c12.1-6.7,23.8-7.7,35.5-8.9c11.5-1.1,23.8-0.6,33.9-5.6c7.1-3.5,13.8-6.7,21.5-7.2
	c5.3-0.3,12.4-2,12.6,6.5c0.1,7.4-6.2,7.4-11.5,7.1c-26.7-2-51.4,11.7-78,10.2C885.2,351.9,881.2,354,875.1,350z"/>
<path class="st1" d="M862.5,461.3c0,1.5,0.1,3,0.1,4.5c-38.9,3.9-75.1,16.8-110.5,32.6c0-1.2-0.1-2.4-0.1-3.6
	c9.1-8.2,20.9-11,31.8-14.9C809.3,470.7,834.7,460.9,862.5,461.3z"/>
<path class="st1" d="M1037,772.7c-1.9-3.8,2.7-10.7-5.6-11.4c9.1-17.7,24-30.9,35.6-46.7c4.5-6.1,9.7-11.7,14.6-17.6
	c1,0.7,2,1.5,3,2.2C1068.8,723.8,1052.9,748.3,1037,772.7z"/>
<path class="st1" d="M359.5,760.4c0.1,1.7,0.1,3.4,0.2,5.1c-12.1,8.6-26.2,14-37.2,24.3c-9.2,8.6-17.5,17.7-23,29.2
	c-2.1-4.1-5.8-2.4-9-2.3c2.4-9.5,9.5-15.9,16.1-22.2C322.2,780,339.2,767.6,359.5,760.4z"/>
<path class="st1" d="M1074.9,402.2c-1.3,5.6,3.6,6.2,6.7,8.4c9.4,7.1,21.6,10.7,27.1,22.5c-11.9-7.3-23.5-15-35.7-21.9
	c-12.9-7.3-27.4-10.9-41.1-16.3c-2.6-1-6.1-0.7-7.6-6C1043.3,386.7,1058.8,395.6,1074.9,402.2z"/>
<path class="st1" d="M1026,439.3c-3.2,0.7-7.3,0.9-4.2,6c-6.9,2.1-11.3-3.6-16-6.2c-17-9.4-36-11.7-54.2-16.5
	c-2.3-0.6-5.4,0.2-6.9-3.7c12.6-3,24.6,0.8,36,3.8C996.2,426.9,1012.6,429.3,1026,439.3z"/>
<path class="st1" d="M624.1,483.7c24.4-16.4,51.4-27.5,78.3-38.9c0.6,1.2,1.3,2.5,1.9,3.7c-26,12.8-52,25.7-78,38.5
	C625.5,485.9,624.8,484.8,624.1,483.7z"/>
<path class="st1" d="M1124.1,462.6c-1.4,1.8-2.8,3.6-4.2,5.3c-15.9-17.4-31.2-35.5-53.9-47.2C1080,417.9,1114.5,443.9,1124.1,462.6z
	"/>
<path class="st1" d="M809.8,416.8c0.4,0-1.8,0.8-2.4-1.6c-0.6-2.2,1.3-3.4,2.9-4.2c12.1-5.8,24.6-10.5,37.7-13.2c4.7-1,8,1.7,9,6.3
	c1,4.9-2.3,6.5-6.4,7.1C837.6,413,824.8,414.8,809.8,416.8z"/>
<path class="st1" d="M767.3,419.4c2.6-7.3,9.9-6.7,15.4-9.2c3.9-1.8,8-3.4,11.6-6c-7.9-2-14.4,2.1-21.3,4.4
	c-4.6,1.5-8.7,6.5-14.3,2.4c17.9-10.9,38.3-13.8,58.2-18.3c2-0.4,4.8-0.7,5.4,2.3c0.4,2.2-1.7,3.1-3.4,3.8
	C801.9,406,785.4,414.7,767.3,419.4z"/>
<path class="st1" d="M799,489.3c0-1.5,0.1-3,0.1-4.5c34.9-14.8,71-17.1,108-9.9c-2.6,1.3-6.2,1.2-6.8,5.1c-30.1-7.6-59.5-3-88.5,5.8
	C807.6,487.1,803.3,488.2,799,489.3z"/>
<path class="st1" d="M864.2,516.5c-10.4,0.3-20.8,0.2-31.1,0.8c-16.9,1-32.6,6.7-48.2,13.1c12.2-9.5,27.4-11.3,41.6-15.4
	c9.3-2.6,19.1-3.7,28.8-3.1c3.5,0.2,7.9-0.8,8.8,4.6C864.1,516.7,864.2,516.5,864.2,516.5z"/>
<path class="st1" d="M972.8,842.8c1.9,13-7.4,24.5-4.7,38c2,10.1,4.3,19.4,12.3,26.5c1.6,1.4,3.1,3.2,2.5,5.8
	c-8.5-0.7-11-8-14.7-13.7C959.8,886.2,960.2,857.3,972.8,842.8z"/>
<path class="st1" d="M1163.8,441.1c0.3,2.6-1.9,2.8-3.2,3.9c-2.2,2-4.5,1.3-5.8-0.5c-6.7-8.9-14.9-16.1-23.8-22.8
	c-1.4-1-2.7-3-1.5-4.8c1.2-1.8,3.3-1.3,5-0.4c10.5,5.7,19.6,13.2,27.4,22.1C1162.6,439.4,1163.2,440.4,1163.8,441.1z"/>
<path class="st1" d="M1064.9,500c6.9,2.7,10.7-2.2,14.9-6.1c4.4,5.2,8.6,10.5,6.1,18.1c-0.4,0-0.7,0-1.1,0
	c-14.3-1.3-14.3-1.3-14.7,13.5c-4.2-3.3-5.1-8.1-4-12.6C1067.1,508.2,1065.8,504.2,1064.9,500z"/>
<path class="st1" d="M317,807.6c0,6.6-6.4,10.4-7.4,16.7c-0.6,3.9-2.7,8.1,0.6,11.5c3.1,3.1,6.1,0.3,9.3-0.1
	c4.1-0.5,8.9,4.2,13.4,6.7c-6.4,3.1-13.2,1.6-19.6,0.8c-8.6-1.1-12.9-10.3-8.6-19.1C307.5,818,310.1,810.9,317,807.6z"/>
<path class="st1" d="M836.7,484.6c0.3,2.1,0.6,4.3,0.9,6.4c-16.2,4-32.3,7.9-48.5,11.9c-0.3-1.2-0.6-2.3-0.9-3.5
	C799,494,810.1,489,822,487.8C827.3,487.3,832,486.4,836.7,484.6z"/>
<path class="st1" d="M1063.7,450.9c-0.1,1.7-0.1,3.4-0.2,5.1c-9.3-6.6-18.6-13.3-27.9-19.9c-1.9-1.3-4-2.6-2.7-5.2
	c0.4-0.8,3.2-1.5,3.8-1C1045.5,437.1,1059.5,437.8,1063.7,450.9z"/>
<path class="st1" d="M814.8,670.9c-14.9,15.2-31,29.1-48.5,41.2c-0.7-0.7-1.5-1.4-2.2-2.1c16.2-13.7,32.4-27.4,48.7-41.2
	C813.4,669.6,814.1,670.2,814.8,670.9z"/>
<path class="st1" d="M754.9,721c-13.1,10.8-27.2,19.9-41.4,29c-0.6-0.9-1.3-1.8-1.9-2.8c13.8-9.5,27.7-19.1,41.5-28.6
	C753.7,719.4,754.3,720.2,754.9,721z"/>
<path class="st1" d="M1050,422.4c-1.2,0.5-2.4,1-3.7,1.5c-9.4-0.9-17.2-5.4-24.6-11.1C1032.1,413,1042.2,414,1050,422.4z"/>
<path class="st1" d="M572.8,505.2c13.6-12.6,29.3-21.6,47.1-26.8l-0.2-0.2C604.8,488.6,589.2,497.6,572.8,505.2L572.8,505.2z"/>
<path class="st1" d="M770.7,763.5c-3-1.3-6.5-1.4-8.5-4.8c-1.1-2-2.5-4-1-6.1c2.7-3.5,3.3,0.3,4.6,1.6c3.1,3.2,5,0.2,7.6-1
	c5-2.4,6.5-9.4,13-9.4c-2.3,6.5-4.9,12.7-10.7,17c-3.1-1.8-5.7-2.6-5.5,2.6L770.7,763.5z"/>
<path class="st1" d="M793.1,736.4c-8.7-0.6-15.8-4.4-21.6-10.7c1.2-3,3.2-4.7,6.6-3.8c-1.6,7.5,3.4,7.3,7.9,6c6-1.8,8.1,1,9.1,6.1
	C795.5,735.6,794.7,736.3,793.1,736.4z"/>
<path class="st1" d="M915.7,463c-14.9-0.6-30,0.6-44.8-2.3C886,457.8,901,458.1,915.7,463z"/>
<path class="st1" d="M848.9,786.8c3.4,3.9,14.5,0.9,11.7,8.3c-3.3,8.7-11.3,1.9-17.2,0.3C843.5,791.4,845.6,788.7,848.9,786.8z"/>
<path class="st1" d="M346.5,704.6c11-7.7,22.7-14.3,35.8-17.9l-0.1-0.1c-11,7.8-22.8,14-35.7,18L346.5,704.6z"/>
<path class="st1" d="M940.3,778.5c-0.2,14.4-0.2,14.4-17.9,15.8C928.2,788.8,936.2,785.9,940.3,778.5z"/>
<path class="st1" d="M982.6,471.2c0.4,2.7,0.8,5.4,1.4,9.3c-8.5-6-19.4,5.6-26.4-5.5C966.5,477.4,974.8,476,982.6,471.2z"/>
<path class="st1" d="M952.2,472.7c-11.2-1.8-22.2-4.4-32.7-8.9C931.4,463.3,942.2,466.5,952.2,472.7z"/>
<path class="st1" d="M722.7,677.6c1,0.2,1.9,0.5,2.9,0.7c-7.2,7.2-14.5,14.3-23.8,18.8c-0.7-0.8-1.4-1.6-2.1-2.4
	C706.3,687.5,715.3,683.7,722.7,677.6z"/>
<path class="st1" d="M910,806.9c3.9,12.3,3,13.4-10.6,13.3C903,815.8,906.5,811.4,910,806.9z"/>
<path class="st1" d="M787.9,543.2c7.9-5.6,16.8-8.6,27-8.7c-8.3,3.6-16.7,7.1-25,10.7C789.2,544.5,788.6,543.9,787.9,543.2z"/>
<path class="st1" d="M474.2,576.9c-4.8,8.4-12.9,12.1-21.5,15c7.3-4.8,11.2-14.4,21.4-15.1L474.2,576.9z"/>
<path class="st1" d="M1174.3,442c4.2,4.3-0.9,10.9,3.8,15.3c0.9,0.8-0.7,2.8-2.3,3c-4.7,0.6-6.5-2.2-7.1-6.3
	C1171.9,450.6,1173.7,446.6,1174.3,442z"/>
<path class="st1" d="M711.4,542.3c-6.4,4-12.4,8.8-22.7,12.4c6.8-8.5,13.9-10.9,20.3-14.3C709.8,541.1,710.6,541.7,711.4,542.3z"/>
<path class="st1" d="M761,514.1c4.3-6.5,11.3-7.3,18-8.7C773.4,509.1,767.9,513.2,761,514.1L761,514.1z"/>
<path class="st1" d="M994.9,811.2c-0.2,6.9-4.2,11.1-10,14.2C985.9,819,988.5,813.7,994.9,811.2z"/>
<path class="st1" d="M719.6,428.3c5.2,0,5.4,5.6,8.7,7.7c-1.8,3.4-5.6,5-8.1,3.2C716.5,436.6,720.7,432,719.6,428.3z"/>
<path class="st1" d="M1019.4,777.6c0.1,7.2-3.4,11.6-10.1,13.7C1010.8,785.4,1014.8,781.3,1019.4,777.6z"/>
<path class="st1" d="M1224.5,557c-6.4-1.5-12.7-3-19.1-4.4c0.5-1,1-1.9,1.4-2.9c6.5-0.5,12.1,2.7,18.1,4.6
	C1224.8,555.2,1224.7,556.1,1224.5,557z"/>
<path class="st1" d="M422.4,664.2c-4.4,5.1-11.1,6.6-16.7,9.7c4.8-4.5,10-8.5,16.9-9.6L422.4,664.2z"/>
<path class="st1" d="M492.8,564.2c-3.5,3.5-6.9,7.3-13.7,8.2c2.8-6.4,7.7-8.4,11.8-11.3C491.5,562.2,492.1,563.2,492.8,564.2z"/>
<path class="st1" d="M377.5,661.8c-3.8,4.3-8.9,5.7-14.2,6.7c4-3.8,9-5.5,14.3-6.6L377.5,661.8z"/>
<path class="st1" d="M1013.1,456.1c-5.7,0.4-8.1-3.1-10.3-8.6c5.9-0.3,8.5,3.3,11.5,5.9C1013.9,454.3,1013.5,455.2,1013.1,456.1z"/>
<path class="st1" d="M862.4,766c-0.3,6.1-3.7,10.1-8.8,13.1C853.9,772.9,856.3,768.3,862.4,766z"/>
<path class="st1" d="M963.1,599.5c-1.6-1.8-2.8,0-4.2,0.3c-0.6-0.6-1.1-1.1-1.7-1.7c3.1-3.6,6.4-7.2,11.4-8.1
	C968.4,594.2,966.6,597.3,963.1,599.5z"/>
<path class="st1" d="M742.6,522.4c5.5-4.1,11-8.3,18.4-8.3l0,0c-5.6,3.8-11.2,7.5-17.9,9L742.6,522.4z"/>
<path class="st1" d="M890.9,785.2c0.6,6.4-0.2,12.2-5.8,16.4C885,795.4,886.7,789.8,890.9,785.2z"/>
<path class="st1" d="M893.4,511.8c-3.5-0.5-6.2-2.3-9.9-6.3c5.7-0.5,9.3,0.3,12.2,3.9C895,510.2,894.2,511,893.4,511.8z"/>
<path class="st1" d="M1010.1,754.2c-1.1,4.6-4.2,7.4-8.2,9.4C1001.8,758,1004.8,755,1010.1,754.2z"/>
<path class="st1" d="M413.7,767.1c3.7-4.3,8.5-5.6,14-5.2C423.8,765.7,418.9,767,413.7,767.1z"/>
<path class="st1" d="M507.1,549.2c3.3-3.6,7-6.6,11.5-8.6c0.6,0.6,1.3,1.1,1.9,1.7c-3.9,2.9-7.9,5.9-11.8,8.8
	C508.2,550.5,507.6,549.9,507.1,549.2z"/>
<path class="st1" d="M1049,515.7c3.8,2,6.3-1.6,9.5-2.1c0.2,1,0.4,1.9,0.6,2.9c-2.9,1.5-5.7,3-8.6,4.4
	C1048.8,519.5,1048.3,517.8,1049,515.7z"/>
<path class="st1" d="M881,774.7c-4.8-5-4.9-8.7,3-10C882.9,768.1,882,771.4,881,774.7z"/>
<path class="st1" d="M938.2,833.4c-1.9-4.9-0.3-8.1,4.6-9.8C943.4,827.8,941.9,831.1,938.2,833.4z"/>
<path class="st1" d="M1066.1,797.8c1.9,4.9,0.4,8.2-4.7,9.8C1060.9,803.4,1062.4,800.1,1066.1,797.8z"/>
<path class="st1" d="M559.6,568.2c0.1-4.7,4.8-4.5,7.5-6.5c-2.6,2.1-5.1,4.2-7.7,6.4L559.6,568.2z"/>
<path class="st1" d="M979,833.6c1.2,5.1-1.2,7.7-6,8.7C972.9,838,975,835.1,979,833.6z"/>
<path class="st1" d="M583.7,464.6c2.1-4.1,5.5-5.7,10-5C591.1,462.6,588.1,465,583.7,464.6z"/>
<path class="st1" d="M500.5,558c-2.6,2.1-5.2,4.2-7.8,6.2c-0.6-1-1.3-2-1.9-3.1c2.4-1.8,4.7-3.5,7.1-5.3
	C498.8,556.6,499.7,557.3,500.5,558z"/>
<path class="st1" d="M879.8,491.6c4.3-1.7,7.9-0.4,11.2,2.4C887,494.5,883.2,494.1,879.8,491.6z"/>
<path class="st1" d="M572.7,505.1c-1.5,2.8-4,3.9-8.6,5.2C566.9,506,569.3,504.8,572.7,505.1C572.8,505.2,572.7,505.1,572.7,505.1z"
	/>
<path class="st1" d="M497.9,555.8c3-2.2,6.1-4.4,9.1-6.6c0.6,0.6,1.1,1.3,1.7,1.9c-2.7,2.3-5.5,4.6-8.2,6.9
	C499.7,557.3,498.8,556.6,497.9,555.8z"/>
<path class="st1" d="M598.5,456.7c1.5-4.1,4.8-4.7,8.5-4.3C605.1,455.7,602.1,456.7,598.5,456.7z"/>
<path class="st1" d="M518.6,540.6c3.3-3.1,6.4-6.6,11.6-6.2l-0.1-0.1c-2.3,3.7-5.9,5.9-9.6,8C519.9,541.8,519.2,541.2,518.6,540.6z"
	/>
<path class="st1" d="M402,771c3-3.3,6.8-4.4,11.2-3.8C410.2,770.6,406.4,771.9,402,771z"/>
<path class="st1" d="M753.1,718.6c2.4-1.9,4.9-3.8,7.3-5.7c0.8,0.7,1.6,1.3,2.4,2c-2.6,2-5.3,4.1-7.9,6.1
	C754.3,720.2,753.7,719.4,753.1,718.6z"/>
<path class="st1" d="M868.7,758.5c-0.3,3.7-1.8,6.5-6,6.9C862,760.8,864.6,759.1,868.7,758.5z"/>
<path class="st1" d="M631.6,472.7c-0.6-0.5-1.1-0.9-1.6-1.3c0.8-0.6,1.6-1.3,2.5-1.6c0.8-0.2,2.5-0.5,1.7,1.3
	C633.9,471.8,632.5,472.2,631.6,472.7z"/>
<path class="st1" d="M556.8,513.9c-1.4,4.3-4.4,6.5-8.8,6.8c0,0,0.1,0.1,0.1,0.1c1.8-3.8,5.4-5.1,8.8-6.8L556.8,513.9z"/>
<path class="st1" d="M1101.3,675c0.6-2.8,1.4-5.5,4.2-7.5c2.9,4.5-0.9,6.1-3.2,8.4C1102,675.6,1101.6,675.3,1101.3,675z"/>
<path class="st1" d="M1102.3,675.9c-1.3,3.7-3.7,6.6-6.5,9.2c-0.8-0.7-1.5-1.3-2.3-2c2.6-2.7,5.2-5.4,7.8-8.1
	C1101.6,675.3,1102,675.6,1102.3,675.9z"/>
<path class="st1" d="M1095.8,685.1c-1.3,1.9-2.1,6.1-4.9,4c-2.7-2.1,1.1-4.2,2.6-6C1094.3,683.8,1095,684.4,1095.8,685.1z"/>
<path class="st1" d="M377.6,662c2-1.1,4-2.2,6.9-3.8c-2,3.8-4.6,3.4-7,3.6C377.5,661.8,377.6,662,377.6,662z"/>
<path class="st1" d="M1052.8,790.1c-0.9-3.5,0.6-5.8,3.7-7.3C1057.2,786.2,1056.5,788.9,1052.8,790.1z"/>
<path class="st1" d="M989.4,798.4c-0.3-3.4,0.8-5.8,4.3-6.8C994.1,795.1,993.4,797.8,989.4,798.4z"/>
<path class="st1" d="M983.8,827c0.8,3.1-0.2,4.8-3.5,4.9C979.9,829.1,981.1,827.5,983.8,827z"/>
<path class="st1" d="M961.2,835.1c-0.5-3.3,1-4.7,4.2-4.6C965.5,833.4,964.3,835.1,961.2,835.1z"/>
<path class="st1" d="M754.9,411.9c-1.1,2.8-2.8,3.3-5,1.1C751.1,411,752.8,410.6,754.9,411.9z"/>
<path class="st1" d="M745.8,414c-1.3,2.7-3.3,3.3-5.9,1.9C741.3,413.4,743.3,412.8,745.8,414z"/>
<path class="st1" d="M541.5,525.4c-0.3,1.9-1.6,2.9-3.4,3.4c-0.2,0.1-0.7-0.7-1-1.1c1.4-0.8,2.8-1.7,4.2-2.5
	C541.3,525.2,541.5,525.4,541.5,525.4z"/>
<path class="st1" d="M541.3,525.2c1.4-2.9,3.7-4.2,6.8-4.4c0,0-0.1-0.1-0.1-0.1c-1,3.2-3.5,4.3-6.6,4.7
	C541.5,525.4,541.3,525.2,541.3,525.2z"/>
<path class="st1" d="M576.9,468.9c0.9-2.4,1.7-4.9,5.2-3.6C581.3,467.9,579.6,469.1,576.9,468.9z"/>
<path class="st1" d="M990.5,485.6c-0.6-3.3,0.1-4.9,3.7-3C993.7,484.5,992.4,485.4,990.5,485.6z"/>
<path class="st1" d="M422.6,664.3c0.3-2.8,3-2.4,4.4-3.6c-0.6,2.6-2.4,3.2-4.5,3.5C422.4,664.2,422.6,664.3,422.6,664.3z"/>
<path class="st1" d="M437.5,600.6c1.7-1.3,3.3-2.9,5.8-2.4c0.1,3-2.5,3.2-4.2,4.4C438.6,602,438.1,601.3,437.5,600.6z"/>
<path class="st1" d="M983.4,805.8c-0.5-3,1-4.5,3.7-5.2C987.4,803.5,986.8,805.7,983.4,805.8z"/>
<path class="st1" d="M1030.8,762.1c0.4,2.8-0.8,4.3-3.5,4.7C1027.3,764.4,1028.3,762.7,1030.8,762.1z"/>
<path class="st1" d="M1024.3,771c0.3,2.7-0.8,4.4-3.6,4.8C1020.5,773.2,1021.9,771.7,1024.3,771z"/>
<path class="st1" d="M559.5,568c-2.3,1.4-4.7,2.8-7,4.3l0.2,0.2c1.2-3.3,3.5-4.6,7-4.3C559.6,568.2,559.5,568,559.5,568z"/>
<path class="st1" d="M998.4,785c0.3-2.6,1.3-4.5,4.3-4.6C1002.8,783.4,1001.7,785.2,998.4,785z"/>
<path class="st1" d="M1030.2,786.2c-1-2.6-0.3-4.2,2.5-4.8C1033.5,783.8,1032.7,785.5,1030.2,786.2z"/>
<path class="st1" d="M973.4,798.2c0.4,2.9-0.6,4.7-3.6,5.2C969.5,800.7,970.7,798.9,973.4,798.2z"/>
<path class="st1" d="M1002.9,799.9c1.1,2.9-0.2,4.1-3,4.2C999.7,801.8,1000.6,800.3,1002.9,799.9z"/>
<path class="st1" d="M964.3,811.6c0.5,3.1-0.4,4.9-3.8,5C960.5,814,961.6,812.1,964.3,811.6z"/>
<path class="st1" d="M944.6,819.9c-1.4-2.9-0.4-4.6,2.7-5.3C947.9,817.1,947.1,818.9,944.6,819.9z"/>
<path class="st1" d="M990,504.7c-2.3-1.4-3.1-3.5-2.7-6.2C989.5,500,990.5,502,990,504.7z"/>
<path class="st1" d="M698.2,700.1c-0.8-0.9-1.6-1.8-2.5-2.7c1.3-0.9,2.7-1.8,4-2.7c0.7,0.8,1.4,1.6,2.1,2.4
	C700.6,698.1,699.4,699.1,698.2,700.1z"/>
<path class="st1" d="M559.6,478.6c1.3-2.2,3.2-3.3,5.8-3.1C564.2,477.8,562.2,478.8,559.6,478.6z"/>
<path class="st1" d="M430.8,607.4c-1.8,0.5-4,3.5-5.4,0.9c-1.2-2.1,1.8-2.3,3.5-2.8C429.5,606.1,430.1,606.7,430.8,607.4z"/>
<path class="st1" d="M1088.6,516.4c-0.9-1.5-1.8-2.9-2.7-4.4C1087.3,513.1,1091.1,512.8,1088.6,516.4z"/>
<path class="st1" d="M389,682.2c0.4-0.4,0.9-0.8,1.3-1.2c0.1,0.3,0.2,0.7,0.3,1c-0.6,0-1.2,0-1.8,0.1
	C388.8,682.1,389,682.2,389,682.2z"/>
<path class="st1" d="M1032.9,780.9c-0.7-2,0-3.4,2-4.1C1035.5,778.8,1034.9,780.2,1032.9,780.9z"/>
<path class="st1" d="M435,605c-1.4,0.8-2.8,1.5-4.2,2.3c-0.6-0.6-1.3-1.2-1.9-1.8c1.4-0.8,2.9-1.6,4.3-2.4
	C433.8,603.8,434.4,604.4,435,605z"/>
<path class="st1" d="M996.1,789.4c-0.2-2,0.2-3.6,2.3-4.3C998.3,786.9,999.1,789.2,996.1,789.4z"/>
<path class="st1" d="M969.1,589.3c0.2-1.8,1.4-2.6,2.9-3.1C971.9,587.9,970.8,588.9,969.1,589.3z"/>
<path class="st1" d="M1002.9,481.1c1.7-1.5,3.4-1.5,5,0.2C1006.2,481.3,1004.5,481.2,1002.9,481.1z"/>
<path class="st1" d="M290.4,816.9c0.4,2,0.1,3.6-2.1,4.3C288.1,819.4,288.7,817.9,290.4,816.9z"/>
<path class="st1" d="M433.2,603.1c1.4-0.8,2.9-1.7,4.3-2.5c0.6,0.7,1.1,1.3,1.7,2c-1.4,0.8-2.8,1.6-4.2,2.4
	C434.4,604.4,433.8,603.8,433.2,603.1z"/>
<path class="st1" d="M713.3,538c1.4-1.2,2.8-2,4.4-0.4c-0.9,0.9-1.9,1.8-2.8,2.6C714.4,539.4,713.8,538.7,713.3,538z"/>
<path class="st1" d="M545.9,576.9c0.9-2.1,2.6-2.4,4.5-2.2c0,0-0.2-0.1-0.2-0.1c-1.1,1.6-2.5,2.4-4.5,2.2L545.9,576.9z"/>
<path class="st1" d="M760.4,712.9c1.2-1,2.4-1.9,3.7-2.9c0.7,0.7,1.5,1.4,2.2,2.1c-1.2,0.9-2.3,1.8-3.5,2.8
	C762,714.2,761.2,713.6,760.4,712.9z"/>
<path class="st1" d="M366.4,782.7c1.2-2,2.8-2.3,4.8-1.4C370,783.1,368.4,783.6,366.4,782.7z"/>
<path class="st1" d="M346.4,704.6c-0.2,0-0.5,0.1-0.7,0.1c0.3,0,0.6,0,0.8-0.1C346.5,704.6,346.4,704.6,346.4,704.6z"/>
<path class="st1" d="M1113.6,475.2c-1.9-0.4-3.2-1.3-3.1-3.5C1112.6,471.9,1113.5,473.2,1113.6,475.2z"/>
<path class="st1" d="M743.1,523.1c-0.8,0.5-1.7,1.1-2.5,1.5c-0.1,0-0.4-0.5-0.7-0.8c0.9-0.5,1.8-1,2.7-1.5
	C742.6,522.4,743.1,523.1,743.1,523.1z"/>
<path class="st1" d="M382.2,686.8c0.7-2.4,2.6-2.4,4.5-2.3c0,0-0.1-0.1-0.1-0.1c-1.5,0.7-3,1.5-4.5,2.2
	C382.1,686.6,382.2,686.8,382.2,686.8z"/>
<path class="st1" d="M709,540.5c1.4-0.8,2.9-1.7,4.3-2.5c0.5,0.7,1.1,1.5,1.6,2.2c-1.2,0.7-2.4,1.4-3.6,2.1
	C710.6,541.7,709.8,541.1,709,540.5z"/>
<path class="st1" d="M1029.6,462.9c-2,0.2-3.2-0.9-4-2.6C1027.8,459.8,1028.9,461.1,1029.6,462.9z"/>
<path class="st1" d="M893,494.6c2-0.6,3.5,0,4.5,1.9C895.5,496.8,894,496.3,893,494.6z"/>
<path class="st1" d="M556.9,514c0.5-0.2,1-0.4,1.5-0.7c-0.5,0.2-1.1,0.4-1.6,0.5C556.8,513.9,556.9,514,556.9,514z"/>
<path class="st1" d="M1002.9,780.4c0.6-0.8,1.1-1.5,1.7-2.3C1005,779.6,1004.5,780.4,1002.9,780.4z"/>
<path class="st1" d="M691.1,735.7c-0.2,1.3-1,1.8-2.2,1.4C689.6,736.6,690.3,736.1,691.1,735.7z"/>
<path class="st1" d="M909.2,736.2c-0.5,0.8-1.1,1.7-1.6,2.5C907.3,737.4,907.9,736.5,909.2,736.2z"/>
<path class="st1" d="M1072.3,784.9c0.2,0.2,0.4,0.4,0.6,0.6c-0.4,0.2-0.8,0.3-1.1,0.5c0,0-0.2-0.8-0.2-0.8L1072.3,784.9z"/>
<path class="st1" d="M993.8,791.5c0.1-1.4,0.8-2.1,2.2-2C995.3,790.1,994.5,790.8,993.8,791.5z"/>
<path class="st1" d="M1057.6,506.4c-0.8-0.6-1.6-1.1-2.4-1.7C1056,505.3,1056.8,505.8,1057.6,506.4z"/>
<path class="st1" d="M872.3,799.4c-0.5-1.3,0-2.1,1.3-2.4C874.2,798.4,873.7,799.1,872.3,799.4z"/>
<path class="st1" d="M906.9,740.6c0.3,1.4-0.3,2.3-1.8,2.5C905.7,742.3,906.3,741.5,906.9,740.6z"/>
<path class="st1" d="M870.5,490.4c1.1-1.2,2.2-1.1,3,0.3C872.5,490.6,871.5,490.5,870.5,490.4z"/>
<path class="st1" d="M978.5,812.2c-0.2-1.5,0.4-2.3,1.8-2.6C980.6,811.1,980,812,978.5,812.2z"/>
<path class="st1" d="M1139.3,408.8c1.1-0.7,1.5-0.4,1.1,0.8c0,0-0.9,0.1-0.9,0.1L1139.3,408.8z"/>
<path class="st1" d="M1103.1,477.7c0.3,0.9,0.6,1.9,0.9,2.8C1102.9,479.8,1102.5,478.9,1103.1,477.7z"/>
<path class="st1" d="M765.7,821.3c-0.6-1.4-0.2-2.3,1.1-2.9C767.5,819.8,767.2,820.7,765.7,821.3z"/>
<path class="st1" d="M902.6,747.6c0.4,1.3,0,2.1-1.3,2.4C900.9,748.8,901.4,748,902.6,747.6z"/>
<path class="st1" d="M888.5,751.9c-0.1-0.6-0.3-1.2-0.3-1.8c0-0.1,0.6-0.2,0.9-0.3C888.9,750.4,888.7,751.1,888.5,751.9z"/>
<path class="st1" d="M1081.8,478.1c0.6,0.8,1.3,1.7,1.9,2.5C1082.3,480.3,1081.7,479.5,1081.8,478.1z"/>
<path class="st1" d="M729.6,420c-1,0.2-1.9,0.4-2.9,0.5C727.5,419.3,728.4,419,729.6,420z"/>
<path class="st1" d="M1032.8,443.4c-1.3,0.5-2.1,0.1-2.4-1.3C1031.7,441.6,1032.5,442.1,1032.8,443.4z"/>
<path class="st1" d="M1124.7,475.7c0.6,0.9,1.1,1.7,1.7,2.6C1125.1,477.9,1124.4,477,1124.7,475.7z"/>
<path class="st1" d="M619.9,478.4c0.1-0.3,0.1-0.6,0.2-0.9c-0.1,0.3-0.2,0.5-0.4,0.8C619.7,478.2,619.9,478.4,619.9,478.4z"/>
<path class="st1" d="M386.7,684.5c-0.2-1.7,1-2,2.2-2.3c0,0-0.1-0.1-0.1-0.1c0.2,1.7-0.9,2.1-2.2,2.3
	C386.6,684.4,386.7,684.5,386.7,684.5z"/>
<path class="st1" d="M363.7,763.8c0.4-1.3,1.2-1.6,2.5-1.2C365.4,763,364.6,763.4,363.7,763.8z"/>
<polygon class="st1" points="530.2,534.4 530.4,533.9 530.1,534.3 "/>
<path class="st1" d="M1069.5,476.5c-0.6-0.8-1.1-1.6-1.7-2.4C1069.2,474.4,1069.8,475.1,1069.5,476.5z"/>
<path class="st1" d="M545.7,576.8c-0.2,0.5-0.4,1.1-0.6,1.6c-1.6-1.5,0.3-1.1,0.8-1.5C545.9,576.9,545.7,576.8,545.7,576.8z"/>
<path class="st1" d="M1122,471.5c1.3,0.4,1.9,1.2,1.7,2.6C1123.2,473.2,1122.6,472.3,1122,471.5z"/>
<path class="st1" d="M896.5,764.5c0.7,1.3,0.4,2.2-0.9,2.9C895.9,766.5,896.2,765.5,896.5,764.5z"/>
<path class="st1" d="M1067.8,474c-0.7-0.8-1.3-1.6-2-2.4C1067.2,471.8,1067.8,472.6,1067.8,474z"/>
<path class="st1" d="M1087.4,471.9c-0.5-0.8-1-1.6-1.4-2.4C1087.3,469.8,1087.9,470.6,1087.4,471.9z"/>
<path class="st1" d="M1048.2,469.1c0.7,0.8,1.3,1.6,2,2.4C1048.9,471.2,1048.1,470.5,1048.2,469.1z"/>
<path class="st1" d="M552.5,572.3c-0.7,0.8-1.5,1.5-2.2,2.3c0,0,0.2,0.1,0.2,0.1c-0.2-1.7,0.8-2.2,2.2-2.3
	C552.6,572.4,552.5,572.3,552.5,572.3z"/>
<path class="st1" d="M1085.8,469.4c-0.7-0.7-1.4-1.4-2.1-2.1C1085.1,467.2,1085.8,468,1085.8,469.4z"/>
<path class="st1" d="M1083.6,467.2c-0.8-0.7-1.5-1.3-2.3-2C1082.1,465.9,1082.8,466.5,1083.6,467.2z"/>
<path class="st1" d="M1052.6,774.3c0.4,1.3,0,2.2-1.4,2.6C1050.8,775.5,1051.3,774.7,1052.6,774.3z"/>
<path class="st1" d="M906.7,518.5c-1.5,0.1-2.2-0.6-2.1-2.1C905.3,517.1,906,517.8,906.7,518.5z"/>
<path class="st1" d="M1033.9,467.4c-1.4-0.2-2-0.9-1.9-2.3C1033.3,465.3,1034,466.1,1033.9,467.4z"/>
<path class="st1" d="M1081.1,465c-0.7-0.7-1.3-1.4-2-2.1C1079.8,463.6,1080.5,464.3,1081.1,465z"/>
<path class="st1" d="M1042,462.1c1.3,0,2,0.6,1.9,2C1042.6,464.1,1042,463.5,1042,462.1z"/>
<path class="st1" d="M1031.6,452.6c1.3-0.3,2,0.2,2,1.6C1032.3,454.4,1031.6,453.9,1031.6,452.6z"/>
<path class="st1" d="M1037.2,446.1c-1.4,0.4-2.2-0.2-2.5-1.5C1036,444.3,1036.8,444.8,1037.2,446.1z"/>
<path class="st1" d="M991.4,775.9c0.1,1.4-0.6,2.3-2,2.4C989.3,776.9,990,776.1,991.4,775.9z"/>
<polygon class="st1" points="474,576.8 474.5,576.5 474.1,576.9 "/>
<path class="st1" d="M1047.6,507.8c0.4,0.4,0.9,0.8,1.3,1.2c0.1,0.1-0.3,0.5-0.5,0.8C1048.1,509.2,1047.8,508.5,1047.6,507.8z"/>
<path class="st0" d="M633.3,973.4c2.4,17.6,4.8,35.2,7.3,52.8c0.9,6.4,1.5,12.5-3.9,17.7c-5.2,4.9-10.9,8.3-18.1,6.3
	c-7-1.9-9.7-8.1-10.9-14.4c-2-10.2-3.8-20.6-4.7-31c-0.9-9.9-3.7-19.1-7.7-27.9c-11.5-25-33.6-32.9-59.6-22.5
	c-24.6,9.9-50.3,15.9-76.6,19.3c-11.8,1.5-23.7,3.2-35.5,4.6c-5.2,0.6-11.1,1-13.7-4.9c-2.7-6.4-1-12.4,4.2-17.3
	c4.6-4.4,10.3-6.1,16.3-6.8c41.3-4.6,81.2-15.7,121.2-26.3c19.3-5.1,37.5-3.9,54.1,8.8c10.7,8.2,14.6,20.3,20.8,31.3
	c1.7,3.1,1.4,7.7,6.2,8.4C632.8,972.2,633.1,972.8,633.3,973.4z M626.2,1008.2c-1.9-16.1-6.4-34.9-15.9-51.9
	c-5.5-10-13.4-18.9-25.2-22.6c-3.9-1.2-8.7-2.2-11,2.3c-2.5,4.9,2.7,6.3,5.6,8c20.4,12.1,30.4,31,34.7,53.3c1.4,7.3,4,14.2,5.6,21.4
	c0.4,1.8,0.4,4.1,2.7,4.3c3.1,0.2,3.1-2.6,3.3-4.7C626.3,1016,626.2,1013.7,626.2,1008.2z"/>
<path class="st0" d="M480.9,876.2c-2.3-0.3-3.9-1.1-3.3-3.4c0.9-3.5,4-3.7,6.9-3.8c1.9,0,4.3,0.6,3.9,2.6
	C487.6,875.5,483.7,875.3,480.9,876.2z"/>
<path class="st0" d="M1077.3,858c0,4.9,0,9.8,0,14.7c-3.5,4.2-1.5,6.3,2.9,7.5c1,2.7,2.6,4.5,5.8,4c-0.5,2.9,5.3,4.6,2,7.6
	c-3,2.6-6.4,0.4-9-1.6c-5.9-4.7-8.5-11.1-8-18.5c1-14.7,2.3-29.3,3.4-44c4.1-17.4,11.9-33.7,18.8-49.9c4.3-10.3,12.8-19.9,19.4-29.7
	c22.5-33.4,49-63.7,72.4-96.3c20.5-28.5,35.3-59.3,39.6-94.6c0.1-0.9,0.3-1.8,0.4-2.7c0.8-8.5,5.4-16.7-0.4-25.7
	c-0.9-1.4,3.5-9.3,2.9-14.8c-1.8-18.8-6.1-36.8-16.3-53.1c-1.3-2.2-2.1-4.7-3.1-7.1c1.2-1.2,2.5-2.3,3.7-3.5
	c20.7,31.6,23.6,66.5,19.1,102.7c-1.1,8.4-3.1,16.7-4.8,25.1c-6.2,30.6-22.6,56.5-38,79.6c-21,31.5-48.2,58.4-66.4,91.8
	c-3.5,6.5-8.7,12-13.1,18c-1.7,0-2.3,0.9-1.8,2.5c-1,2.1-2,4.2-2.9,6.3c-1.5,0.3-2.2,1-1.7,2.6c0,0.7-0.1,1.3-0.4,1.9
	c-10.1,8.6-11.7,21.5-16.2,32.9c-2.1,5.1-7,10.2-2.6,16.4c-0.7,2.8-1.4,5.6-2.1,8.4c-3.4,1-4.3,2.6-1.2,5.1c-0.3,2-0.7,4.1-1,6.1
	C1073.9,851.8,1073.7,854.6,1077.3,858z"/>
<path class="st0" d="M1277.9,384.7c-6.5,0.9-10.6-1.2-14.4-3.4c-21.2-12.6-44.4-20.7-66.8-30.6c-5.7-2.5-11.8-4.7-18.4-4.2
	c-2.8,0.2-7.6,4-8-1.5c-0.3-4,1.9-9.1,7.2-10.1c2.4-0.5,5.5-0.2,7.5,1c25.3,14.9,53.7,23.4,79.3,37.8
	C1269.1,376.4,1274.5,378.2,1277.9,384.7z"/>
<path class="st0" d="M599.3,435.3c-0.5,0.2-1,0.4-1.5,0.7c-6.6,1.8-13.3,3.3-16.1,10.8c-1.4,0.8-2.9,1.6-4.3,2.4
	c-3.3-1.4-5.3,0.8-7.8,2.4c-4.6,3-7.4,0.4-9.3-3.8c12.4-2.3,21.1-11.5,31.7-17.2c1.9-1,3.9-2.6,3.1-5.3c-0.8-2.6-2.9-1.3-4.6-1.2
	c-2,0.1-4-0.2-4.4-2.4c-0.5-2.7,1.8-3.9,3.7-4.9c5.6-3,15.6,0.9,18.1,6.7c1.4,3.3-0.1,4.8-2.8,6
	C602.3,430.6,599.3,431.5,599.3,435.3z"/>
<path class="st0" d="M638.8,407.5c-1.9,3.5-4.9,6.2-8.8,5.1c-4-1.2-10.3-3.3-9.1-7.7c1.5-5.8,5.6,0.3,8.7,0.5
	c2.5,0.2,5.1,0.3,7.6,0.5C637.7,406.4,638.2,406.9,638.8,407.5z"/>
<path class="st0" d="M1211.6,388.5c-3.3-0.1-6.8,0.1-7.8-5c4.5-0.7,7,0.7,7.7,5.2L1211.6,388.5z"/>
<path class="st0" d="M1265.5,471.6c-3.1,2.5-2.7-0.8-3.6-2.1c1.2-1,2.5-1.9,3.7-2.9C1266.2,468.3,1267.3,470,1265.5,471.6z"/>
<polygon class="st0" points="1211.5,388.7 1212.1,389 1211.6,388.5 "/>
<path class="st1" d="M1202.5,753.7c0.8-8.5-5.1-8.6-10.9-8.6c0.9-3.3,2.9-5.8,6-7.3c1.5,6.5,7.3,6.1,12,7.3
	C1207.5,748.2,1207,752.6,1202.5,753.7z"/>
<path class="st1" d="M1266.2,481c-0.3-0.9-0.7-1.7-1-2.6C1265.6,479.3,1265.9,480.1,1266.2,481z"/>
<path class="st0" d="M1097.4,879.2c-9.6-4.5-7.1-11.2-2.8-18.3c0.9,6.1,1.8,12.3,2.7,18.4C1097.3,879.3,1097.4,879.2,1097.4,879.2z"
	/>
<path class="st0" d="M1094.1,834.5c0.9-3.1,1.9-6.1,2.8-9.2c1.6,0.1,3.3,0.3,4.9,0.4c0,0-0.2-0.2-0.2-0.2
	C1099.9,829.1,1106.1,839.5,1094.1,834.5z"/>
<path class="st0" d="M1097.3,879.3c0,0,0.1-0.1,0.1-0.1C1097.4,879.2,1097.3,879.3,1097.3,879.3z"/>
<path class="st1" d="M1101.9,825.7c-1.6-0.1-3.3-0.3-4.9-0.4c-0.7-2-0.5-3.6,1.9-4.2C1099.9,822.6,1100.9,824.2,1101.9,825.7z"/>
<path class="st1" d="M1119.6,778.5c-0.3-1.4,0.2-2.2,1.6-2.6C1121.5,777.2,1121,778.1,1119.6,778.5z"/>
<path class="st1" d="M1333.1,494.3c-0.3-0.5-0.7-1-0.9-1.6c-0.1-0.2,0.2-0.6,0.3-0.9c0.3,0.5,0.7,1,0.9,1.6
	C1333.6,493.6,1333.3,494,1333.1,494.3z"/>
<path class="st1" d="M1290.9,441.9c1.5-0.1,2,0.6,1.8,2C1292.2,443.2,1291.6,442.6,1290.9,441.9z"/>
<path class="st1" d="M953.2,605c-1.5,1.3-3.3,4.4-4.9,2.6c-1.9-2,1.4-3.1,2.9-4.3C951.9,603.9,952.5,604.4,953.2,605z"/>
<path class="st1" d="M956.5,602c-1.1,1-2.2,2-3.3,3c-0.7-0.6-1.3-1.1-2-1.7c1.3-1.1,2.5-2.3,3.8-3.4
	C955.5,600.6,956,601.3,956.5,602z"/>
<path class="st1" d="M955,599.9c0.7-0.6,1.5-1.2,2.2-1.7c0.6,0.6,1.1,1.1,1.7,1.7c-0.8,0.7-1.6,1.4-2.3,2.1
	C956,601.3,955.5,600.6,955,599.9z"/>
<path class="st0" d="M699.7,694.7c-1.3,0.9-2.7,1.8-4,2.7c-36.3,25.1-77.2,42-114.9,64.4c-5.7,3.4-11.4,6.7-17.1,10
	c-2-0.7-3,0.3-3.8,2c-1.1,0.7-2.3,1.5-3.4,2.2c-11.6,4.8-23.4,9.3-34.8,14.5c-35,15.9-71.5,27.8-108.4,38.6
	c-6.6,1.9-15.4,5.2-19.4-4.4c-2.9-7,5.6-18.5,15.2-20.6c15.9-3.5,30.9-9.7,46.3-14.8c5.2-1.7,10.9-2.6,15-7
	c39.9-13.4,77.6-31.9,114.7-51.4c41-21.6,80.3-46.2,118.9-71.9c7.1-2.4,13.9-3.1,19.3,3.5c4.1,5.1,3.3,10.2-0.5,15.2
	C715.3,683.7,706.3,687.5,699.7,694.7z M680.3,691.1c-0.7,0.1-1.4,0.2-2.1,0.3c0.2,0.4,0.4,0.8,0.6,1.2
	C679.3,692.1,679.8,691.6,680.3,691.1c0.7-0.8,1.5-1.5,2.2-2.3c3.2-0.1,5.6-1.3,6.7-4.5c3.2-0.1,5.5-1.5,6.7-4.5
	c1.9,0,3.5-0.5,4.6-2.2c3.7-1.2,7.1-3,9-6.7c-3.4,1.7-7.2,2.8-8.9,6.8c-1.9,0-3.5,0.6-4.5,2.2c-2.8,0.6-5.2,1.9-6.7,4.5
	c-2.8,0.7-5.2,2-6.7,4.5C681.8,689.7,681.1,690.4,680.3,691.1z"/>
<path class="st1" d="M581.6,446.8c2.8-7.5,9.5-9,16.1-10.8C595.7,444.6,588.4,445.4,581.6,446.8z"/>
<path class="st1" d="M626.2,1008.2c0,5.6,0.2,7.8,0,10c-0.2,2.1-0.2,4.9-3.3,4.7c-2.3-0.1-2.3-2.5-2.7-4.3
	c-1.6-7.2-4.2-14.1-5.6-21.4c-4.4-22.2-14.3-41.2-34.7-53.3c-2.9-1.7-8.1-3.1-5.6-8c2.3-4.5,7.1-3.5,11-2.3
	c11.7,3.7,19.6,12.6,25.2,22.6C619.7,973.3,624.3,992.1,626.2,1008.2z"/>
<path class="st1" d="M1082.9,830.1c-4.4-6.3,0.5-11.3,2.6-16.4c4.6-11.3,6.2-24.2,16.2-32.9C1096.4,797.6,1091.4,814.5,1082.9,830.1
	z"/>
<path class="st1" d="M1080.2,880.1c-4.4-1.2-6.3-3.3-2.9-7.5C1081.8,873.8,1085,875.4,1080.2,880.1z"/>
<path class="st1" d="M1077.3,858c-3.6-3.4-3.5-6.2,1.3-8.3C1080,852.7,1079.7,855.5,1077.3,858z"/>
<path class="st1" d="M1079.7,843.6c-3.1-2.5-2.2-4.1,1.2-5.1C1081.6,840.4,1081.7,842.2,1079.7,843.6z"/>
<path class="st1" d="M1106.8,769.9c-0.5-1.6,0.1-2.4,1.8-2.5C1108,768.3,1107.4,769.1,1106.8,769.9z"/>
<path class="st1" d="M1102.2,778.8c-0.6-1.6,0.2-2.3,1.7-2.6C1103.3,777.1,1102.7,777.9,1102.2,778.8z"/>
<path class="st1" d="M700.5,677.7c1.7-3.9,5.5-5.1,8.9-6.8l0,0C707.5,674.6,704.2,676.4,700.5,677.7L700.5,677.7z"/>
<path class="st1" d="M689.3,684.4c1.5-2.6,3.9-3.8,6.7-4.5c0,0-0.1-0.1-0.1-0.1C694.8,682.9,692.5,684.3,689.3,684.4L689.3,684.4z"
	/>
<path class="st1" d="M689.3,684.4c-1.2,3.1-3.6,4.4-6.7,4.5l0.1,0.1C684.1,686.4,686.5,685.1,689.3,684.4
	C689.3,684.4,689.3,684.4,689.3,684.4z"/>
<path class="st1" d="M700.5,677.7c-1.1,1.7-2.7,2.2-4.6,2.2c0,0,0.1,0.1,0.1,0.1C697.1,678.3,698.6,677.7,700.5,677.7
	C700.5,677.7,700.5,677.7,700.5,677.7z"/>
<path class="st1" d="M680.3,691.1c-0.5,0.5-1,1-1.5,1.5c-0.2-0.4-0.4-0.8-0.6-1.2C678.9,691.3,679.6,691.2,680.3,691.1
	C680.3,691.1,680.3,691.1,680.3,691.1z"/>
<path class="st1" d="M682.5,688.9c-0.7,0.8-1.5,1.5-2.2,2.3c0,0,0,0,0,0C681.1,690.4,681.8,689.7,682.5,688.9
	C682.6,688.9,682.5,688.9,682.5,688.9z"/>
</svg>
