<svg width="265" height="47" viewBox="0 0 265 47" fill="none" xmlns="http://www.w3.org/2000/svg">
<path d="M13.0565 19.3521C13.0619 19.2456 13.0931 19.1421 13.1476 19.0502C13.202 18.9584 13.278 18.881 13.3691 18.8246L20.535 14.8271C20.6306 14.7797 20.7359 14.7551 20.8427 14.7551C20.9495 14.7551 21.0548 14.7797 21.1504 14.8271L28.2121 18.9282C28.3014 18.986 28.3758 19.0638 28.4292 19.1554C28.4827 19.247 28.5137 19.3499 28.5198 19.4556L28.5346 27.6036C28.5294 27.7095 28.4987 27.8126 28.4452 27.9043C28.3917 27.9961 28.3168 28.0738 28.227 28.131L21.0462 32.168C20.9506 32.2153 20.8453 32.2399 20.7385 32.2399C20.6317 32.2399 20.5264 32.2153 20.4308 32.168L13.3989 28.0965C13.3089 28.0382 13.2341 27.9596 13.1806 27.867C13.1271 27.7745 13.0965 27.6707 13.0912 27.5641L13.0565 19.3521ZM41.5713 12.6336C41.5547 12.3476 41.4712 12.0695 41.3273 11.8213C41.1834 11.5731 40.9832 11.3618 40.7425 11.2041L21.7657 0.202094C21.5087 0.073391 21.2248 0.00634766 20.937 0.00634766C20.6491 0.00634766 20.3653 0.073391 20.1082 0.202094L13.0565 4.14546V11.6526L20.3464 7.60084C20.5223 7.51437 20.7159 7.46939 20.9122 7.46939C21.1084 7.46939 21.302 7.51437 21.4779 7.60084L34.3954 15.1179C34.5612 15.2263 34.6989 15.3722 34.7972 15.5435C34.8955 15.7148 34.9517 15.9068 34.9611 16.1037L34.9909 31.054C34.9833 31.252 34.9274 31.4451 34.828 31.6169C34.7286 31.7886 34.5886 31.9338 34.4202 32.0399L21.2596 39.4337C21.0843 39.5224 20.8905 39.5686 20.6938 39.5686C20.4972 39.5686 20.3033 39.5224 20.1281 39.4337L7.19073 31.8821C7.02437 31.7742 6.88629 31.6286 6.78791 31.4571C6.68953 31.2857 6.63368 31.0934 6.625 30.8963V7.70928L0.833708 10.933C0.591313 11.0857 0.389184 11.2938 0.244163 11.5399C0.0991416 11.786 0.0154289 12.0629 0 12.3477V34.3664C0.0167128 34.6517 0.0998012 34.9293 0.242737 35.1773C0.385674 35.4254 0.584564 35.6371 0.823783 35.7959L19.8204 46.7979C20.0775 46.9266 20.3613 46.9936 20.6492 46.9936C20.937 46.9936 21.2209 46.9266 21.4779 46.7979L40.7822 35.9832C41.0246 35.8305 41.2267 35.6224 41.3718 35.3763C41.5168 35.1302 41.6005 34.8533 41.6159 34.5685L41.5713 12.6336Z" fill="#7C8B9C"/>
<path d="M91.8716 22.4032C92.5305 21.4808 92.878 20.3746 92.8641 19.2436C92.8665 18.5246 92.7202 17.8128 92.4343 17.1523C92.1483 16.4917 91.7288 15.8966 91.2017 15.4038C90.6873 14.8995 90.0771 14.5017 89.4067 14.2334C88.7363 13.9652 88.0189 13.8319 87.2962 13.8412H74.1851V33.1588H88.4127C89.8641 33.1601 91.2569 32.5904 92.2865 31.5742C93.316 30.5581 93.8984 29.1783 93.9063 27.7367V26.6522C93.9358 25.8337 93.7663 25.0202 93.4121 24.2806C93.0579 23.5409 92.5295 22.897 91.8716 22.4032ZM77.7482 17.3853H87.2912C87.5531 17.3787 87.8136 17.4261 88.0562 17.5245C88.2988 17.6229 88.5182 17.7702 88.7006 17.9571C88.8898 18.1301 89.0392 18.3417 89.1386 18.5773C89.2379 18.813 89.2849 19.0672 89.2762 19.3225C89.262 19.8233 89.052 20.299 88.6907 20.6487C88.3294 20.9983 87.8453 21.1945 87.3408 21.1956H80.1749C79.34 21.1874 78.5128 21.3554 77.7482 21.6885V17.3853ZM90.3432 27.712C90.3405 28.2188 90.136 28.704 89.7743 29.0615C89.4125 29.419 88.923 29.6196 88.4127 29.6196H77.7482V26.8691C77.7931 26.3378 78.0271 25.8398 78.4082 25.4643C78.6335 25.2312 78.9051 25.0473 79.2059 24.9242C79.5066 24.8012 79.8299 24.7417 80.1551 24.7496H88.3929C88.9027 24.7482 89.3922 24.9478 89.7541 25.3045C90.116 25.6612 90.3207 26.1458 90.3233 26.6522L90.3432 27.712Z" fill="#7C8B9C"/>
<path d="M112.208 13.8412H108.64V33.1588H112.208V13.8412Z" fill="#7C8B9C"/>
<path d="M137.08 13.4173C135.072 13.4173 133.109 14.0088 131.44 15.117C129.77 16.2251 128.468 17.8002 127.7 19.643C126.931 21.4859 126.73 23.5136 127.122 25.47C127.514 27.4263 128.481 29.2233 129.901 30.6337C131.321 32.0442 133.13 33.0047 135.1 33.3938C137.069 33.783 139.111 33.5833 140.966 32.8199C142.821 32.0566 144.407 30.764 145.523 29.1055C146.638 27.447 147.234 25.4971 147.234 23.5025C147.231 20.8285 146.161 18.2648 144.257 16.3741C142.353 14.4833 139.772 13.4199 137.08 13.4173ZM137.08 30.083C135.769 30.083 134.487 29.6966 133.397 28.9728C132.306 28.2489 131.456 27.2201 130.955 26.0165C130.453 24.8129 130.322 23.4885 130.578 22.211C130.834 20.9334 131.466 19.76 132.394 18.8392C133.322 17.9184 134.504 17.2916 135.79 17.038C137.076 16.7845 138.41 16.9156 139.621 17.4148C140.832 17.914 141.868 18.7588 142.595 19.8425C143.323 20.9261 143.711 22.1998 143.71 23.5025C143.704 25.2452 143.003 26.9144 141.76 28.1449C140.518 29.3753 138.835 30.0669 137.08 30.0682V30.083Z" fill="#7C8B9C"/>
<path d="M198.641 13.8412H195.073V33.1588H198.641V13.8412Z" fill="#7C8B9C"/>
<path d="M265 17.3853V13.8412H246.609V33.1588H265V29.6196H250.172V24.7496H262.583V21.2055H250.172V17.3853H265Z" fill="#7C8B9C"/>
<path d="M161.963 33.1588H165.531V27.1747C165.523 26.8559 165.583 26.539 165.706 26.2445C165.829 25.9499 166.013 25.6841 166.245 25.4643C166.471 25.2317 166.743 25.0481 167.043 24.9251C167.344 24.8021 167.667 24.7423 167.992 24.7496H177.987V21.1956H167.987C167.112 21.1726 166.249 21.4057 165.506 21.866V17.3853H180.369V13.8412H161.963V33.1588Z" fill="#7C8B9C"/>
<path d="M226.749 24.6017C227.633 24.5609 228.496 24.318 229.27 23.8919C230.158 23.3849 230.881 22.6356 231.354 21.7329C231.528 21.4068 231.661 21.0609 231.751 20.7027C231.867 20.2383 231.923 19.7614 231.92 19.2831V15.6059C231.914 15.1378 231.724 14.6904 231.39 14.3603C231.056 14.0302 230.604 13.8438 230.133 13.8412H213.39V17.3853H228.362V19.288C228.365 19.5417 228.316 19.7933 228.216 20.0268C228.116 20.2602 227.967 20.4703 227.781 20.6435C227.604 20.8267 227.39 20.9705 227.153 21.0657C226.916 21.1608 226.662 21.2051 226.406 21.1956H219.404C217.848 21.2208 216.364 21.8549 215.275 22.9602C214.707 23.507 214.258 24.1633 213.955 24.889C213.652 25.6146 213.502 26.3942 213.514 27.1797V33.1588H217.077V27.1846C217.068 26.8654 217.127 26.548 217.249 26.2526C217.372 25.9572 217.555 25.6904 217.786 25.4692C218.012 25.2373 218.284 25.0544 218.585 24.9322C218.885 24.8101 219.208 24.7512 219.533 24.7594H222.188L229.389 33.1686H233.686L226.436 24.6165L226.749 24.6017Z" fill="#7C8B9C"/>
</svg>
